<svg width="151" height="148" viewBox="0 0 151 148" fill="none" xmlns="http://www.w3.org/2000/svg">
<path d="M60.5 76H60.35V75.85H60.5V76ZM60.5 82.5L59.634 81H61.366L60.5 82.5ZM99 76H99.15V76.15H99V76ZM60.65 76V81.15H60.35V76H60.65ZM99.15 61V76H98.85V61H99.15ZM99 76.15H60.5V75.85H99V76.15Z" fill="#5D0100"/>
<rect x="81" y="52" width="61" height="9" fill="#5D0100" fill-opacity="0.85"/>
<path d="M43.8091 53.3928C44.0141 53.3551 44.2487 53.3254 44.513 53.3038C44.7828 53.2822 45.0282 53.2715 45.2493 53.2715C45.4975 53.2715 45.7321 53.2984 45.9533 53.3524C46.1798 53.4063 46.3767 53.4953 46.5439 53.6194C46.7165 53.7434 46.8541 53.9053 46.9566 54.1048C47.0591 54.3044 47.1103 54.5472 47.1103 54.8331C47.1103 55.0542 47.0726 55.2511 46.997 55.4237C46.9269 55.5909 46.8379 55.7366 46.73 55.8606C46.6275 55.9793 46.5197 56.0764 46.4064 56.1519C46.2931 56.2274 46.196 56.2814 46.1151 56.3137L47.612 59H46.8271L45.4921 56.5079H44.4807V59H43.8091V53.3928ZM45.2655 53.854C45.1954 53.854 45.1226 53.854 45.0471 53.854C44.9715 53.854 44.8987 53.8567 44.8286 53.8621C44.7585 53.8675 44.6911 53.8729 44.6263 53.8783C44.567 53.8837 44.5184 53.8918 44.4807 53.9026V55.9901H45.1118C45.484 55.9901 45.7915 55.8984 46.0342 55.715C46.2769 55.5316 46.3983 55.2457 46.3983 54.8573C46.3983 54.566 46.2985 54.326 46.0989 54.1372C45.8993 53.9484 45.6215 53.854 45.2655 53.854ZM48.3127 56.9772C48.3127 56.3245 48.4826 55.8094 48.8225 55.4318C49.1623 55.0488 49.6478 54.8573 50.2789 54.8573C50.6187 54.8573 50.91 54.914 51.1527 55.0272C51.4009 55.1351 51.6058 55.2835 51.7677 55.4723C51.9295 55.661 52.0482 55.8849 52.1237 56.1438C52.2046 56.4027 52.245 56.6805 52.245 56.9772C52.245 57.3009 52.2019 57.5948 52.1156 57.8591C52.0293 58.1181 51.9025 58.3392 51.7353 58.5226C51.5681 58.706 51.3604 58.849 51.1123 58.9515C50.8695 59.0485 50.5917 59.0971 50.2789 59.0971C49.9445 59.0971 49.6532 59.0432 49.405 58.9353C49.1569 58.822 48.9519 58.671 48.7901 58.4822C48.6283 58.2934 48.5069 58.0695 48.426 57.8106C48.3505 57.5517 48.3127 57.2739 48.3127 56.9772ZM48.9843 56.9772C48.9843 57.166 49.0059 57.3548 49.049 57.5436C49.0976 57.7324 49.1731 57.9023 49.2756 58.0533C49.3781 58.2044 49.5102 58.3257 49.672 58.4174C49.8393 58.5091 50.0415 58.555 50.2789 58.555C50.7104 58.555 51.0341 58.4228 51.2498 58.1585C51.471 57.8888 51.5816 57.495 51.5816 56.9772C51.5816 56.783 51.5573 56.5942 51.5087 56.4108C51.4656 56.222 51.3901 56.0521 51.2822 55.9011C51.1797 55.75 51.0448 55.6287 50.8776 55.537C50.7158 55.4453 50.5162 55.3994 50.2789 55.3994C49.8474 55.3994 49.5237 55.5316 49.3079 55.7959C49.0922 56.0602 48.9843 56.454 48.9843 56.9772ZM55.6402 54.9544H56.7891V57.7135C56.7891 57.9778 56.8053 58.2313 56.8377 58.4741H57.3798V59H56.3036L56.2794 58.3123H56.247C56.1068 58.5442 55.9207 58.733 55.6887 58.8786C55.4568 59.0243 55.1763 59.0971 54.8472 59.0971C54.5991 59.0971 54.386 59.0674 54.208 59.0081C54.0354 58.9542 53.8925 58.8571 53.7792 58.7168C53.6659 58.5766 53.5823 58.3905 53.5284 58.1585C53.4744 57.9212 53.4475 57.6272 53.4475 57.2766V55.4965H52.9054V54.9544H54.0786V57.1471C54.0786 57.3683 54.0867 57.5679 54.1028 57.7459C54.1244 57.9185 54.1649 58.0668 54.2242 58.1909C54.2835 58.3096 54.3699 58.4013 54.4831 58.466C54.6018 58.5253 54.7582 58.555 54.9524 58.555C55.2329 58.555 55.4756 58.4633 55.6806 58.2799C55.891 58.0965 56.0501 57.8672 56.158 57.5921V55.4965H55.6402V54.9544ZM57.8054 54.9544H58.7683V54.1534L59.3994 53.9754V54.9544H61.5597V55.4965H59.3994V57.406C59.3994 57.7998 59.4938 58.0911 59.6826 58.2799C59.8768 58.4687 60.1519 58.5631 60.5079 58.5631C60.7506 58.5631 60.961 58.5172 61.139 58.4255C61.3224 58.3338 61.4869 58.234 61.6326 58.1262L61.8429 58.6035C61.6541 58.7546 61.4276 58.8759 61.1633 58.9676C60.9044 59.0593 60.6373 59.1052 60.3622 59.1052C60.1465 59.1052 59.9415 59.0728 59.7473 59.0081C59.5585 58.9488 59.3913 58.8544 59.2457 58.7249C59.1 58.5954 58.9841 58.4309 58.8977 58.2313C58.8114 58.0264 58.7683 57.7836 58.7683 57.5031V55.4965H57.8054V54.9544ZM66.6864 58.4903C66.5893 58.5766 66.4733 58.6575 66.3385 58.733C66.209 58.8085 66.0661 58.8732 65.9096 58.9272C65.7532 58.9811 65.5887 59.0216 65.4161 59.0485C65.2488 59.0809 65.0789 59.0971 64.9063 59.0971C64.5827 59.0971 64.2968 59.0485 64.0487 58.9515C63.8005 58.849 63.5929 58.706 63.4256 58.5226C63.2584 58.3338 63.1317 58.11 63.0454 57.8511C62.959 57.5921 62.9159 57.3009 62.9159 56.9772C62.9159 56.6374 62.9617 56.3353 63.0534 56.071C63.1505 55.8067 63.2881 55.5855 63.4661 55.4075C63.6441 55.2295 63.8599 55.0947 64.1134 55.003C64.3669 54.9059 64.6501 54.8573 64.963 54.8573C65.1895 54.8573 65.4134 54.887 65.6345 54.9463C65.8557 55.0057 66.0499 55.1189 66.2171 55.2862C66.3897 55.448 66.5219 55.6745 66.6136 55.9658C66.7053 56.2517 66.7376 56.6239 66.7106 57.0824H63.5794C63.5794 57.5679 63.7088 57.932 63.9677 58.1747C64.2321 58.412 64.5827 58.5307 65.0196 58.5307C65.1652 58.5307 65.3082 58.5145 65.4484 58.4822C65.5941 58.4444 65.7316 58.4013 65.8611 58.3527C65.9905 58.3042 66.1038 58.2502 66.2009 58.1909C66.3034 58.1315 66.3816 58.0776 66.4355 58.0291L66.6864 58.4903ZM64.9791 55.3913C64.8011 55.3913 64.6312 55.4102 64.4694 55.448C64.313 55.4857 64.1727 55.5505 64.0487 55.6422C63.93 55.7285 63.8302 55.8444 63.7493 55.9901C63.6738 56.1303 63.6252 56.3056 63.6036 56.516H66.12C66.093 56.16 65.977 55.8849 65.7721 55.6907C65.5725 55.4911 65.3082 55.3913 64.9791 55.3913ZM72.352 57.3251C72.352 56.9691 72.4517 56.6293 72.6513 56.3056C72.8509 55.982 73.1287 55.7096 73.4847 55.4884C73.3553 55.2942 73.242 55.1001 73.1449 54.9059C73.0532 54.7117 73.0073 54.5013 73.0073 54.2748C73.0073 54.1453 73.0289 54.0185 73.0721 53.8945C73.1152 53.7704 73.1827 53.6598 73.2743 53.5627C73.3714 53.4656 73.4928 53.3874 73.6385 53.3281C73.7895 53.2688 73.9702 53.2391 74.1806 53.2391C74.4017 53.2391 74.5878 53.2688 74.7389 53.3281C74.8899 53.382 75.0113 53.4549 75.103 53.5466C75.1947 53.6383 75.2594 53.7407 75.2971 53.854C75.3403 53.9673 75.3619 54.0833 75.3619 54.2019C75.3619 54.4285 75.2729 54.6631 75.0949 54.9059C74.9223 55.1432 74.6472 55.3725 74.2696 55.5936C74.3559 55.75 74.4557 55.9119 74.5689 56.0791C74.6876 56.2409 74.8117 56.4027 74.9411 56.5646C75.0706 56.7264 75.2027 56.8882 75.3376 57.05C75.4724 57.2065 75.6073 57.3521 75.7422 57.487C75.8015 57.4006 75.8527 57.2955 75.8959 57.1714C75.9444 57.0473 75.9822 56.9179 76.0092 56.783C76.0415 56.6482 76.0631 56.5133 76.0739 56.3785C76.0901 56.2436 76.0982 56.1195 76.0982 56.0063H76.6726C76.6565 56.3461 76.6025 56.6859 76.5108 57.0258C76.4191 57.3602 76.2843 57.6434 76.1063 57.8753C76.1818 57.967 76.2681 58.0587 76.3652 58.1504C76.4623 58.2367 76.5782 58.323 76.7131 58.4093V59.0971C76.4272 58.9568 76.1009 58.706 75.7341 58.3446C75.637 58.4417 75.5372 58.5361 75.4347 58.6278C75.3376 58.7141 75.227 58.7923 75.103 58.8625C74.9789 58.9326 74.8359 58.9892 74.6741 59.0324C74.5177 59.0755 74.3343 59.0971 74.1239 59.0971C73.9028 59.0971 73.687 59.062 73.4766 58.9919C73.2663 58.9164 73.0775 58.8058 72.9102 58.6602C72.743 58.5145 72.6082 58.3311 72.5057 58.11C72.4032 57.8888 72.352 57.6272 72.352 57.3251ZM75.3538 57.9401C75.1973 57.7836 75.0436 57.6137 74.8926 57.4303C74.7415 57.2469 74.5959 57.0635 74.4557 56.8801C74.3208 56.6967 74.194 56.5214 74.0754 56.3542C73.9621 56.1816 73.865 56.0305 73.7841 55.9011C73.4928 56.1222 73.2878 56.3461 73.1692 56.5727C73.0559 56.7992 72.9993 57.0419 72.9993 57.3009C72.9993 57.5112 73.037 57.6946 73.1125 57.8511C73.1934 58.0021 73.2932 58.1289 73.4119 58.2313C73.5306 58.3338 73.66 58.4093 73.8003 58.4579C73.9459 58.5064 74.0862 58.5307 74.221 58.5307C74.4907 58.5307 74.7146 58.4714 74.8926 58.3527C75.076 58.2286 75.2297 58.0911 75.3538 57.9401ZM73.6385 54.2748C73.6385 54.4366 73.6708 54.5984 73.7355 54.7602C73.8057 54.9167 73.8947 55.0731 74.0026 55.2295C74.2884 55.0461 74.4853 54.8789 74.5932 54.7279C74.7065 54.5768 74.7631 54.4447 74.7631 54.3314C74.7631 54.1588 74.72 54.0185 74.6337 53.9107C74.5528 53.8028 74.4098 53.7488 74.2048 53.7488C74.0106 53.7488 73.8677 53.7974 73.776 53.8945C73.6843 53.9916 73.6385 54.1183 73.6385 54.2748Z" fill="#5D0100"/>
<path d="M82.6861 55.27C82.9181 55.1351 83.1797 55.038 83.471 54.9787C83.7623 54.9194 84.0482 54.8897 84.3286 54.8897C84.6037 54.8897 84.8276 54.9328 85.0002 55.0191C85.1782 55.1055 85.3158 55.2187 85.4129 55.359C85.5154 55.4938 85.5828 55.6503 85.6151 55.8283C85.6529 56.0009 85.6718 56.1762 85.6718 56.3542C85.6718 56.5592 85.6664 56.7776 85.6556 57.0096C85.6448 57.2415 85.6367 57.4735 85.6313 57.7054C85.6313 57.9751 85.6475 58.2313 85.6799 58.4741H86.222V59H85.1459L85.073 58.3932H85.0326C85.0002 58.4417 84.9517 58.5037 84.8869 58.5793C84.8222 58.6548 84.7359 58.7303 84.628 58.8058C84.5255 58.8759 84.3988 58.938 84.2477 58.9919C84.0967 59.0458 83.9187 59.0728 83.7137 59.0728C83.3146 59.0728 82.999 58.9703 82.7671 58.7654C82.5351 58.5604 82.4191 58.2799 82.4191 57.9239C82.4191 57.6488 82.4785 57.4195 82.5971 57.2361C82.7212 57.0527 82.8965 56.9125 83.1231 56.8154C83.3496 56.7183 83.622 56.6617 83.9403 56.6455C84.2639 56.6293 84.6253 56.6509 85.0245 56.7102C85.0515 56.4621 85.0542 56.2571 85.0326 56.0953C85.0164 55.9281 84.9732 55.7959 84.9031 55.6988C84.8384 55.6017 84.744 55.5343 84.6199 55.4965C84.5013 55.4534 84.3529 55.4318 84.1749 55.4318C83.9322 55.4318 83.7002 55.4669 83.4791 55.537C83.2579 55.6017 83.061 55.6691 82.8884 55.7393L82.6861 55.27ZM83.8755 58.5307C84.0266 58.5307 84.1668 58.5064 84.2963 58.4579C84.4257 58.4093 84.539 58.3473 84.6361 58.2718C84.7332 58.1963 84.8141 58.1154 84.8788 58.0291C84.9436 57.9374 84.9921 57.8511 85.0245 57.7701V57.2038C84.744 57.1552 84.4851 57.1309 84.2477 57.1309C84.0104 57.1309 83.8054 57.1579 83.6328 57.2119C83.4602 57.2604 83.3253 57.3386 83.2283 57.4465C83.1312 57.5544 83.0826 57.6946 83.0826 57.8672C83.0826 58.0452 83.1419 58.2017 83.2606 58.3365C83.3847 58.466 83.5897 58.5307 83.8755 58.5307ZM89.1074 58.2152H89.1964L90.4667 54.9544H91.1706L89.4634 59H88.7514L87.0118 54.9544H87.7561L89.1074 58.2152ZM95.7956 58.4903C95.6985 58.5766 95.5825 58.6575 95.4477 58.733C95.3182 58.8085 95.1753 58.8732 95.0188 58.9272C94.8624 58.9811 94.6979 59.0216 94.5253 59.0485C94.3581 59.0809 94.1882 59.0971 94.0155 59.0971C93.6919 59.0971 93.406 59.0485 93.1579 58.9515C92.9098 58.849 92.7021 58.706 92.5349 58.5226C92.3676 58.3338 92.2409 58.11 92.1546 57.8511C92.0683 57.5921 92.0251 57.3009 92.0251 56.9772C92.0251 56.6374 92.071 56.3353 92.1627 56.071C92.2598 55.8067 92.3973 55.5855 92.5753 55.4075C92.7533 55.2295 92.9691 55.0947 93.2226 55.003C93.4761 54.9059 93.7593 54.8573 94.0722 54.8573C94.2987 54.8573 94.5226 54.887 94.7437 54.9463C94.9649 55.0057 95.1591 55.1189 95.3263 55.2862C95.4989 55.448 95.6311 55.6745 95.7228 55.9658C95.8145 56.2517 95.8468 56.6239 95.8199 57.0824H92.6886C92.6886 57.5679 92.8181 57.932 93.077 58.1747C93.3413 58.412 93.6919 58.5307 94.1288 58.5307C94.2745 58.5307 94.4174 58.5145 94.5577 58.4822C94.7033 58.4444 94.8408 58.4013 94.9703 58.3527C95.0998 58.3042 95.213 58.2502 95.3101 58.1909C95.4126 58.1315 95.4908 58.0776 95.5448 58.0291L95.7956 58.4903ZM94.0884 55.3913C93.9104 55.3913 93.7404 55.4102 93.5786 55.448C93.4222 55.4857 93.2819 55.5505 93.1579 55.6422C93.0392 55.7285 92.9394 55.8444 92.8585 55.9901C92.783 56.1303 92.7344 56.3056 92.7129 56.516H95.2292C95.2022 56.16 95.0863 55.8849 94.8813 55.6907C94.6817 55.4911 94.4174 55.3913 94.0884 55.3913ZM96.9009 59V58.4579H97.9932V55.4965H96.9009V54.9544H98.414L98.5434 55.4803H98.5839C98.7673 55.3131 98.9723 55.1702 99.1988 55.0515C99.4254 54.9328 99.6951 54.8735 100.008 54.8735C100.191 54.8735 100.337 54.9086 100.445 54.9787C100.558 55.0488 100.644 55.1513 100.704 55.2862C100.769 55.421 100.812 55.5855 100.833 55.7797C100.855 55.9685 100.866 56.1843 100.866 56.427L100.299 56.4351C100.299 56.0899 100.264 55.8364 100.194 55.6745C100.129 55.5127 100.008 55.4318 99.8299 55.4318C99.6627 55.4318 99.5117 55.4561 99.3768 55.5046C99.242 55.5532 99.1233 55.6125 99.0208 55.6826C98.9237 55.7527 98.8401 55.8229 98.77 55.893C98.6999 55.9631 98.6486 56.0225 98.6163 56.071V58.4579H100.17V59H96.9009ZM102.092 55.27C102.324 55.1351 102.586 55.038 102.877 54.9787C103.168 54.9194 103.454 54.8897 103.735 54.8897C104.01 54.8897 104.234 54.9328 104.406 55.0191C104.584 55.1055 104.722 55.2187 104.819 55.359C104.922 55.4938 104.989 55.6503 105.021 55.8283C105.059 56.0009 105.078 56.1762 105.078 56.3542C105.078 56.5592 105.073 56.7776 105.062 57.0096C105.051 57.2415 105.043 57.4735 105.037 57.7054C105.037 57.9751 105.054 58.2313 105.086 58.4741H105.628V59H104.552L104.479 58.3932H104.439C104.406 58.4417 104.358 58.5037 104.293 58.5793C104.228 58.6548 104.142 58.7303 104.034 58.8058C103.932 58.8759 103.805 58.938 103.654 58.9919C103.503 59.0458 103.325 59.0728 103.12 59.0728C102.721 59.0728 102.405 58.9703 102.173 58.7654C101.941 58.5604 101.825 58.2799 101.825 57.9239C101.825 57.6488 101.885 57.4195 102.003 57.2361C102.127 57.0527 102.303 56.9125 102.529 56.8154C102.756 56.7183 103.028 56.6617 103.346 56.6455C103.67 56.6293 104.031 56.6509 104.431 56.7102C104.458 56.4621 104.46 56.2571 104.439 56.0953C104.423 55.9281 104.379 55.7959 104.309 55.6988C104.245 55.6017 104.15 55.5343 104.026 55.4965C103.907 55.4534 103.759 55.4318 103.581 55.4318C103.338 55.4318 103.106 55.4669 102.885 55.537C102.664 55.6017 102.467 55.6691 102.295 55.7393L102.092 55.27ZM103.282 58.5307C103.433 58.5307 103.573 58.5064 103.702 58.4579C103.832 58.4093 103.945 58.3473 104.042 58.2718C104.139 58.1963 104.22 58.1154 104.285 58.0291C104.35 57.9374 104.398 57.8511 104.431 57.7701V57.2038C104.15 57.1552 103.891 57.1309 103.654 57.1309C103.417 57.1309 103.212 57.1579 103.039 57.2119C102.866 57.2604 102.731 57.3386 102.634 57.4465C102.537 57.5544 102.489 57.6946 102.489 57.8672C102.489 58.0452 102.548 58.2017 102.667 58.3365C102.791 58.466 102.996 58.5307 103.282 58.5307ZM110.31 59.2023C110.31 59.4558 110.261 59.677 110.164 59.8658C110.067 60.0599 109.932 60.2191 109.76 60.3431C109.592 60.4672 109.395 60.5589 109.169 60.6182C108.942 60.683 108.697 60.7153 108.433 60.7153C108.114 60.7153 107.837 60.683 107.599 60.6182C107.362 60.5535 107.157 60.4699 106.984 60.3674L107.292 59.7929C107.34 59.8361 107.402 59.8765 107.478 59.9143C107.559 59.9575 107.65 59.9952 107.753 60.0276C107.855 60.0653 107.963 60.095 108.077 60.1166C108.195 60.1382 108.311 60.1489 108.425 60.1489C108.662 60.1489 108.859 60.1274 109.015 60.0842C109.177 60.0411 109.306 59.9736 109.404 59.8819C109.501 59.7902 109.571 59.6716 109.614 59.5259C109.657 59.3803 109.679 59.2023 109.679 58.9919V58.5388H109.646C109.522 58.7168 109.363 58.8544 109.169 58.9515C108.975 59.0485 108.724 59.0971 108.416 59.0971C107.801 59.0971 107.348 58.9272 107.057 58.5874C106.771 58.2421 106.628 57.7081 106.628 56.9853C106.628 56.2949 106.812 55.7743 107.178 55.4237C107.545 55.0677 108.09 54.8897 108.813 54.8897C109.147 54.8897 109.431 54.914 109.662 54.9625C109.9 55.0057 110.116 55.0623 110.31 55.1324V59.2023ZM108.505 58.555C108.834 58.555 109.093 58.4714 109.282 58.3042C109.471 58.1315 109.603 57.8699 109.679 57.5193V55.6017C109.441 55.4884 109.11 55.4318 108.683 55.4318C108.252 55.4318 107.912 55.5586 107.664 55.8121C107.416 56.0656 107.292 56.454 107.292 56.9772C107.292 57.2092 107.313 57.4222 107.356 57.6164C107.4 57.8052 107.467 57.9697 107.559 58.11C107.656 58.2502 107.78 58.3608 107.931 58.4417C108.087 58.5172 108.279 58.555 108.505 58.555ZM115.202 58.4903C115.105 58.5766 114.989 58.6575 114.854 58.733C114.724 58.8085 114.581 58.8732 114.425 58.9272C114.269 58.9811 114.104 59.0216 113.931 59.0485C113.764 59.0809 113.594 59.0971 113.422 59.0971C113.098 59.0971 112.812 59.0485 112.564 58.9515C112.316 58.849 112.108 58.706 111.941 58.5226C111.774 58.3338 111.647 58.11 111.561 57.8511C111.474 57.5921 111.431 57.3009 111.431 56.9772C111.431 56.6374 111.477 56.3353 111.569 56.071C111.666 55.8067 111.803 55.5855 111.981 55.4075C112.159 55.2295 112.375 55.0947 112.629 55.003C112.882 54.9059 113.165 54.8573 113.478 54.8573C113.705 54.8573 113.929 54.887 114.15 54.9463C114.371 55.0057 114.565 55.1189 114.732 55.2862C114.905 55.448 115.037 55.6745 115.129 55.9658C115.221 56.2517 115.253 56.6239 115.226 57.0824H112.095C112.095 57.5679 112.224 57.932 112.483 58.1747C112.747 58.412 113.098 58.5307 113.535 58.5307C113.681 58.5307 113.824 58.5145 113.964 58.4822C114.109 58.4444 114.247 58.4013 114.376 58.3527C114.506 58.3042 114.619 58.2502 114.716 58.1909C114.819 58.1315 114.897 58.0776 114.951 58.0291L115.202 58.4903ZM113.495 55.3913C113.317 55.3913 113.147 55.4102 112.985 55.448C112.828 55.4857 112.688 55.5505 112.564 55.6422C112.445 55.7285 112.346 55.8444 112.265 55.9901C112.189 56.1303 112.141 56.3056 112.119 56.516H114.635C114.608 56.16 114.492 55.8849 114.287 55.6907C114.088 55.4911 113.824 55.3913 113.495 55.3913ZM122.744 59V56.3056C122.744 56.1924 122.739 56.0845 122.728 55.982C122.723 55.8741 122.704 55.7797 122.672 55.6988C122.645 55.6125 122.602 55.5451 122.542 55.4965C122.488 55.448 122.415 55.4237 122.324 55.4237C122.14 55.4237 121.984 55.4992 121.854 55.6503C121.73 55.8013 121.636 55.9901 121.571 56.2166V59H120.956V54.9544H121.377L121.498 55.448H121.531C121.585 55.3671 121.636 55.2916 121.685 55.2214C121.738 55.1459 121.798 55.0812 121.863 55.0272C121.933 54.9733 122.014 54.9328 122.105 54.9059C122.197 54.8735 122.313 54.8573 122.453 54.8573C122.534 54.8573 122.618 54.8708 122.704 54.8978C122.79 54.9194 122.869 54.9571 122.939 55.0111C123.014 55.0596 123.079 55.127 123.133 55.2133C123.187 55.2996 123.222 55.4048 123.238 55.5289C123.362 55.3185 123.5 55.154 123.651 55.0353C123.807 54.9167 124.02 54.8573 124.29 54.8573C124.468 54.8573 124.611 54.887 124.719 54.9463C124.832 55.0057 124.918 55.092 124.978 55.2052C125.042 55.3131 125.086 55.4453 125.107 55.6017C125.134 55.7527 125.148 55.9227 125.148 56.1115V59H124.533V56.249C124.533 56.1357 124.527 56.0305 124.516 55.9334C124.506 55.831 124.484 55.742 124.452 55.6664C124.425 55.5909 124.384 55.5316 124.33 55.4884C124.282 55.4453 124.214 55.4237 124.128 55.4237C123.939 55.4237 123.78 55.4992 123.651 55.6503C123.521 55.8013 123.424 56.0171 123.359 56.2976V59H122.744ZM126.35 55.27C126.582 55.1351 126.844 55.038 127.135 54.9787C127.426 54.9194 127.712 54.8897 127.992 54.8897C128.268 54.8897 128.491 54.9328 128.664 55.0191C128.842 55.1055 128.98 55.2187 129.077 55.359C129.179 55.4938 129.247 55.6503 129.279 55.8283C129.317 56.0009 129.336 56.1762 129.336 56.3542C129.336 56.5592 129.33 56.7776 129.319 57.0096C129.309 57.2415 129.301 57.4735 129.295 57.7054C129.295 57.9751 129.311 58.2313 129.344 58.4741H129.886V59H128.81L128.737 58.3932H128.696C128.664 58.4417 128.616 58.5037 128.551 58.5793C128.486 58.6548 128.4 58.7303 128.292 58.8058C128.189 58.8759 128.063 58.938 127.912 58.9919C127.761 59.0458 127.583 59.0728 127.378 59.0728C126.978 59.0728 126.663 58.9703 126.431 58.7654C126.199 58.5604 126.083 58.2799 126.083 57.9239C126.083 57.6488 126.142 57.4195 126.261 57.2361C126.385 57.0527 126.56 56.9125 126.787 56.8154C127.013 56.7183 127.286 56.6617 127.604 56.6455C127.928 56.6293 128.289 56.6509 128.688 56.7102C128.715 56.4621 128.718 56.2571 128.696 56.0953C128.68 55.9281 128.637 55.7959 128.567 55.6988C128.502 55.6017 128.408 55.5343 128.284 55.4965C128.165 55.4534 128.017 55.4318 127.839 55.4318C127.596 55.4318 127.364 55.4669 127.143 55.537C126.922 55.6017 126.725 55.6691 126.552 55.7393L126.35 55.27ZM127.539 58.5307C127.69 58.5307 127.831 58.5064 127.96 58.4579C128.09 58.4093 128.203 58.3473 128.3 58.2718C128.397 58.1963 128.478 58.1154 128.543 58.0291C128.607 57.9374 128.656 57.8511 128.688 57.7701V57.2038C128.408 57.1552 128.149 57.1309 127.912 57.1309C127.674 57.1309 127.469 57.1579 127.297 57.2119C127.124 57.2604 126.989 57.3386 126.892 57.4465C126.795 57.5544 126.746 57.6946 126.746 57.8672C126.746 58.0452 126.806 58.2017 126.924 58.3365C127.049 58.466 127.253 58.5307 127.539 58.5307ZM130.862 59V58.4579H131.954V55.4965H130.862V54.9544H132.375L132.504 55.4803H132.545C132.728 55.3131 132.933 55.1702 133.16 55.0515C133.386 54.9328 133.656 54.8735 133.969 54.8735C134.152 54.8735 134.298 54.9086 134.406 54.9787C134.519 55.0488 134.605 55.1513 134.665 55.2862C134.729 55.421 134.772 55.5855 134.794 55.7797C134.816 55.9685 134.826 56.1843 134.826 56.427L134.26 56.4351C134.26 56.0899 134.225 55.8364 134.155 55.6745C134.09 55.5127 133.969 55.4318 133.791 55.4318C133.623 55.4318 133.472 55.4561 133.338 55.5046C133.203 55.5532 133.084 55.6125 132.982 55.6826C132.884 55.7527 132.801 55.8229 132.731 55.893C132.661 55.9631 132.609 56.0225 132.577 56.071V58.4579H134.131V59H130.862ZM135.373 53.3362H136.684V56.6859H137.129L138.723 54.9544H139.484L137.696 56.872L139.168 58.4579H139.694V59H138.861L137.129 57.1714H136.684V59H136.061V53.8783H135.373V53.3362Z" fill="#B8CCDD"/>
<rect x="75" y="64" width="76" height="7" fill="#B8CCDD"/>
<path d="M81.712 70V69.4579H82.6749V66.4965H81.712V65.9544H82.6749V65.7279C82.6749 65.2208 82.807 64.854 83.0713 64.6275C83.3356 64.4009 83.7132 64.2876 84.2041 64.2876C84.3821 64.2876 84.5412 64.2984 84.6815 64.32C84.8217 64.3416 84.9728 64.3847 85.1346 64.4495L84.9889 64.9754C84.8487 64.9161 84.7138 64.8783 84.5844 64.8621C84.4549 64.8405 84.3363 64.8297 84.2284 64.8297C83.8724 64.8297 83.6296 64.9187 83.5002 65.0968C83.3707 65.2694 83.306 65.5553 83.306 65.9544H84.9809V66.4965H83.306V69.4579H84.9809V70H81.712ZM86.3127 67.9772C86.3127 67.3245 86.4826 66.8094 86.8225 66.4318C87.1623 66.0488 87.6478 65.8573 88.2789 65.8573C88.6187 65.8573 88.91 65.914 89.1527 66.0272C89.4009 66.1351 89.6058 66.2835 89.7677 66.4723C89.9295 66.661 90.0482 66.8849 90.1237 67.1438C90.2046 67.4027 90.245 67.6805 90.245 67.9772C90.245 68.3009 90.2019 68.5948 90.1156 68.8591C90.0293 69.1181 89.9025 69.3392 89.7353 69.5226C89.5681 69.706 89.3604 69.849 89.1123 69.9515C88.8695 70.0485 88.5917 70.0971 88.2789 70.0971C87.9445 70.0971 87.6532 70.0432 87.405 69.9353C87.1569 69.822 86.9519 69.671 86.7901 69.4822C86.6283 69.2934 86.5069 69.0695 86.426 68.8106C86.3505 68.5517 86.3127 68.2739 86.3127 67.9772ZM86.9843 67.9772C86.9843 68.166 87.0059 68.3548 87.049 68.5436C87.0976 68.7324 87.1731 68.9023 87.2756 69.0533C87.3781 69.2044 87.5102 69.3257 87.672 69.4174C87.8393 69.5091 88.0415 69.555 88.2789 69.555C88.7104 69.555 89.0341 69.4228 89.2498 69.1585C89.471 68.8888 89.5816 68.495 89.5816 67.9772C89.5816 67.783 89.5573 67.5942 89.5087 67.4108C89.4656 67.222 89.3901 67.0521 89.2822 66.9011C89.1797 66.75 89.0448 66.6287 88.8776 66.537C88.7158 66.4453 88.5162 66.3994 88.2789 66.3994C87.8474 66.3994 87.5237 66.5316 87.3079 66.7959C87.0922 67.0602 86.9843 67.454 86.9843 67.9772ZM91.2371 70V69.4579H92.3294V66.4965H91.2371V65.9544H92.7501L92.8796 66.4803H92.9201C93.1035 66.3131 93.3084 66.1702 93.535 66.0515C93.7615 65.9328 94.0312 65.8735 94.3441 65.8735C94.5275 65.8735 94.6731 65.9086 94.781 65.9787C94.8943 66.0488 94.9806 66.1513 95.0399 66.2862C95.1047 66.421 95.1478 66.5855 95.1694 66.7797C95.191 66.9685 95.2018 67.1843 95.2018 67.427L94.6354 67.4351C94.6354 67.0899 94.6003 66.8364 94.5302 66.6745C94.4655 66.5127 94.3441 66.4318 94.1661 66.4318C93.9989 66.4318 93.8478 66.4561 93.713 66.5046C93.5781 66.5532 93.4595 66.6125 93.357 66.6826C93.2599 66.7527 93.1763 66.8229 93.1061 66.893C93.036 66.9631 92.9848 67.0225 92.9524 67.071V69.4579H94.5059V70H91.2371ZM103.23 64.3362H104.541V68.6164C104.541 68.665 104.543 68.727 104.549 68.8025C104.554 68.8726 104.56 68.9481 104.565 69.0291C104.576 69.11 104.587 69.1909 104.597 69.2718C104.608 69.3473 104.619 69.4147 104.63 69.4741H105.172V70H104.096L104.015 69.377H103.982C103.864 69.582 103.686 69.7546 103.448 69.8948C103.216 70.0297 102.947 70.0971 102.639 70.0971C102.03 70.0971 101.579 69.9272 101.288 69.5874C101.002 69.2421 100.859 68.7081 100.859 67.9853C100.859 67.6455 100.908 67.3461 101.005 67.0872C101.102 66.8229 101.24 66.6044 101.418 66.4318C101.601 66.2538 101.819 66.1189 102.073 66.0272C102.326 65.9355 102.61 65.8897 102.923 65.8897C103.036 65.8897 103.136 65.8924 103.222 65.8978C103.314 65.9032 103.397 65.9113 103.473 65.9221C103.548 65.9328 103.618 65.949 103.683 65.9706C103.753 65.9868 103.829 66.0057 103.91 66.0272V64.8783H103.23V64.3362ZM102.744 69.555C103.074 69.555 103.332 69.4714 103.521 69.3042C103.71 69.1315 103.839 68.8753 103.91 68.5355V66.6583C103.791 66.5774 103.656 66.5181 103.505 66.4803C103.359 66.4426 103.165 66.4237 102.923 66.4237C102.491 66.4237 102.151 66.5505 101.903 66.804C101.655 67.0521 101.531 67.4459 101.531 67.9853C101.531 68.2065 101.55 68.4141 101.587 68.6083C101.631 68.7971 101.698 68.9616 101.79 69.1019C101.887 69.2421 102.014 69.3527 102.17 69.4336C102.326 69.5145 102.518 69.555 102.744 69.555ZM106.107 70V69.4579H107.515V66.4965H106.107V65.9544H108.162V69.4579H109.538V70H106.107ZM107.297 64.8055C107.297 64.6598 107.345 64.5358 107.442 64.4333C107.539 64.3254 107.663 64.2715 107.814 64.2715C107.971 64.2715 108.1 64.3254 108.203 64.4333C108.311 64.5358 108.365 64.6598 108.365 64.8055C108.365 64.9457 108.311 65.0644 108.203 65.1615C108.1 65.2586 107.971 65.3071 107.814 65.3071C107.663 65.3071 107.539 65.2586 107.442 65.1615C107.345 65.0644 107.297 64.9457 107.297 64.8055ZM112.229 70V67.3056C112.229 67.1924 112.224 67.0845 112.213 66.982C112.208 66.8741 112.189 66.7797 112.156 66.6988C112.129 66.6125 112.086 66.5451 112.027 66.4965C111.973 66.448 111.9 66.4237 111.808 66.4237C111.625 66.4237 111.469 66.4992 111.339 66.6503C111.215 66.8013 111.121 66.9901 111.056 67.2166V70H110.441V65.9544H110.862L110.983 66.448H111.015C111.069 66.3671 111.121 66.2916 111.169 66.2214C111.223 66.1459 111.282 66.0812 111.347 66.0272C111.417 65.9733 111.498 65.9328 111.59 65.9059C111.682 65.8735 111.798 65.8573 111.938 65.8573C112.019 65.8573 112.102 65.8708 112.189 65.8978C112.275 65.9194 112.353 65.9571 112.423 66.0111C112.499 66.0596 112.564 66.127 112.617 66.2133C112.671 66.2996 112.706 66.4048 112.723 66.5289C112.847 66.3185 112.984 66.154 113.135 66.0353C113.292 65.9167 113.505 65.8573 113.775 65.8573C113.953 65.8573 114.095 65.887 114.203 65.9463C114.317 66.0057 114.403 66.092 114.462 66.2052C114.527 66.3131 114.57 66.4453 114.592 66.6017C114.619 66.7527 114.632 66.9227 114.632 67.1115V70H114.017V67.249C114.017 67.1357 114.012 67.0305 114.001 66.9334C113.99 66.831 113.969 66.742 113.936 66.6664C113.909 66.5909 113.869 66.5316 113.815 66.4884C113.766 66.4453 113.699 66.4237 113.613 66.4237C113.424 66.4237 113.265 66.4992 113.135 66.6503C113.006 66.8013 112.909 67.0171 112.844 67.2976V70H112.229ZM119.241 69.4903C119.144 69.5766 119.028 69.6575 118.893 69.733C118.764 69.8085 118.621 69.8732 118.464 69.9272C118.308 69.9811 118.143 70.0216 117.971 70.0485C117.803 70.0809 117.634 70.0971 117.461 70.0971C117.137 70.0971 116.851 70.0485 116.603 69.9515C116.355 69.849 116.147 69.706 115.98 69.5226C115.813 69.3338 115.686 69.11 115.6 68.8511C115.514 68.5921 115.471 68.3009 115.471 67.9772C115.471 67.6374 115.516 67.3353 115.608 67.071C115.705 66.8067 115.843 66.5855 116.021 66.4075C116.199 66.2295 116.414 66.0947 116.668 66.003C116.922 65.9059 117.205 65.8573 117.518 65.8573C117.744 65.8573 117.968 65.887 118.189 65.9463C118.41 66.0057 118.604 66.1189 118.772 66.2862C118.944 66.448 119.076 66.6745 119.168 66.9658C119.26 67.2517 119.292 67.6239 119.265 68.0824H116.134C116.134 68.5679 116.263 68.932 116.522 69.1747C116.787 69.412 117.137 69.5307 117.574 69.5307C117.72 69.5307 117.863 69.5145 118.003 69.4822C118.149 69.4444 118.286 69.4013 118.416 69.3527C118.545 69.3042 118.658 69.2502 118.756 69.1909C118.858 69.1315 118.936 69.0776 118.99 69.0291L119.241 69.4903ZM117.534 66.3913C117.356 66.3913 117.186 66.4102 117.024 66.448C116.868 66.4857 116.727 66.5505 116.603 66.6422C116.485 66.7285 116.385 66.8444 116.304 66.9901C116.228 67.1303 116.18 67.3056 116.158 67.516H118.675C118.648 67.16 118.532 66.8849 118.327 66.6907C118.127 66.4911 117.863 66.3913 117.534 66.3913ZM120.565 67.3704C120.565 67.3218 120.562 67.2598 120.557 67.1843C120.557 67.1034 120.554 67.0225 120.549 66.9415C120.543 66.8552 120.535 66.7716 120.524 66.6907C120.519 66.6098 120.511 66.5397 120.5 66.4803H119.958V65.9544H121.042L121.115 66.6098H121.155C121.209 66.5181 121.279 66.4291 121.366 66.3428C121.458 66.2511 121.563 66.1702 121.681 66.1001C121.8 66.0245 121.932 65.9652 122.078 65.9221C122.223 65.8789 122.377 65.8573 122.539 65.8573C122.787 65.8573 123.006 65.8843 123.194 65.9382C123.389 65.9922 123.548 66.0893 123.672 66.2295C123.801 66.3644 123.898 66.5505 123.963 66.7878C124.028 67.0198 124.06 67.3164 124.06 67.6778V70H123.429V67.7992C123.429 67.3515 123.356 67.0144 123.211 66.7878C123.065 66.5613 122.801 66.448 122.418 66.448C122.277 66.448 122.14 66.4776 122.005 66.537C121.876 66.5909 121.757 66.6637 121.649 66.7554C121.541 66.8471 121.447 66.955 121.366 67.0791C121.285 67.1978 121.226 67.3245 121.188 67.4594V70H120.565V67.3704ZM128.208 68.9077C128.208 68.7351 128.14 68.6029 128.005 68.5112C127.871 68.4141 127.703 68.3386 127.504 68.2847C127.304 68.2253 127.086 68.1714 126.848 68.1229C126.617 68.0743 126.401 68.0096 126.201 67.9287C126.002 67.8478 125.834 67.7399 125.7 67.605C125.565 67.4648 125.497 67.2706 125.497 67.0225C125.497 66.8175 125.54 66.6422 125.627 66.4965C125.718 66.3509 125.837 66.2322 125.983 66.1405C126.128 66.0434 126.298 65.9733 126.492 65.9301C126.687 65.8816 126.889 65.8573 127.099 65.8573C127.477 65.8573 127.801 65.9059 128.07 66.003C128.345 66.0947 128.564 66.1918 128.726 66.2942L128.467 66.804C128.289 66.7069 128.094 66.6152 127.884 66.5289C127.679 66.4372 127.42 66.3913 127.107 66.3913C126.989 66.3913 126.87 66.4048 126.751 66.4318C126.638 66.4534 126.533 66.4884 126.436 66.537C126.344 66.5855 126.269 66.6503 126.209 66.7312C126.155 66.8067 126.128 66.9011 126.128 67.0144C126.128 67.1546 126.196 67.2625 126.331 67.338C126.465 67.4135 126.633 67.4783 126.832 67.5322C127.032 67.5807 127.248 67.6293 127.48 67.6778C127.717 67.721 127.935 67.7857 128.135 67.872C128.335 67.9583 128.502 68.0743 128.637 68.2199C128.771 68.3656 128.839 68.5625 128.839 68.8106C128.839 69.1828 128.691 69.4903 128.394 69.733C128.103 69.9757 127.663 70.0971 127.075 70.0971C126.897 70.0971 126.722 70.0809 126.549 70.0485C126.376 70.0162 126.215 69.973 126.064 69.9191C125.913 69.8651 125.775 69.8058 125.651 69.7411C125.527 69.671 125.424 69.6008 125.343 69.5307L125.667 69.0048C125.732 69.0695 125.818 69.1369 125.926 69.2071C126.034 69.2718 126.153 69.3311 126.282 69.3851C126.412 69.439 126.549 69.4822 126.695 69.5145C126.846 69.5469 126.997 69.5631 127.148 69.5631C127.293 69.5631 127.428 69.5523 127.552 69.5307C127.682 69.5037 127.795 69.466 127.892 69.4174C127.989 69.3635 128.065 69.2961 128.119 69.2152C128.178 69.1289 128.208 69.0264 128.208 68.9077ZM130.365 70V69.4579H131.773V66.4965H130.365V65.9544H132.42V69.4579H133.796V70H130.365ZM131.554 64.8055C131.554 64.6598 131.603 64.5358 131.7 64.4333C131.797 64.3254 131.921 64.2715 132.072 64.2715C132.229 64.2715 132.358 64.3254 132.461 64.4333C132.568 64.5358 132.622 64.6598 132.622 64.8055C132.622 64.9457 132.568 65.0644 132.461 65.1615C132.358 65.2586 132.229 65.3071 132.072 65.3071C131.921 65.3071 131.797 65.2586 131.7 65.1615C131.603 65.0644 131.554 64.9457 131.554 64.8055ZM134.828 67.9772C134.828 67.3245 134.998 66.8094 135.338 66.4318C135.678 66.0488 136.163 65.8573 136.794 65.8573C137.134 65.8573 137.425 65.914 137.668 66.0272C137.916 66.1351 138.121 66.2835 138.283 66.4723C138.445 66.661 138.564 66.8849 138.639 67.1438C138.72 67.4027 138.76 67.6805 138.76 67.9772C138.76 68.3009 138.717 68.5948 138.631 68.8591C138.545 69.1181 138.418 69.3392 138.251 69.5226C138.083 69.706 137.876 69.849 137.628 69.9515C137.385 70.0485 137.107 70.0971 136.794 70.0971C136.46 70.0971 136.169 70.0432 135.92 69.9353C135.672 69.822 135.467 69.671 135.305 69.4822C135.144 69.2934 135.022 69.0695 134.941 68.8106C134.866 68.5517 134.828 68.2739 134.828 67.9772ZM135.5 67.9772C135.5 68.166 135.521 68.3548 135.564 68.5436C135.613 68.7324 135.688 68.9023 135.791 69.0533C135.893 69.2044 136.026 69.3257 136.187 69.4174C136.355 69.5091 136.557 69.555 136.794 69.555C137.226 69.555 137.549 69.4228 137.765 69.1585C137.986 68.8888 138.097 68.495 138.097 67.9772C138.097 67.783 138.073 67.5942 138.024 67.4108C137.981 67.222 137.905 67.0521 137.798 66.9011C137.695 66.75 137.56 66.6287 137.393 66.537C137.231 66.4453 137.032 66.3994 136.794 66.3994C136.363 66.3994 136.039 66.5316 135.823 66.7959C135.608 67.0602 135.5 67.454 135.5 67.9772ZM139.971 67.3704C139.971 67.3218 139.968 67.2598 139.963 67.1843C139.963 67.1034 139.96 67.0225 139.955 66.9415C139.949 66.8552 139.941 66.7716 139.93 66.6907C139.925 66.6098 139.917 66.5397 139.906 66.4803H139.364V65.9544H140.448L140.521 66.6098H140.562C140.616 66.5181 140.686 66.4291 140.772 66.3428C140.864 66.2511 140.969 66.1702 141.088 66.1001C141.206 66.0245 141.338 65.9652 141.484 65.9221C141.63 65.8789 141.783 65.8573 141.945 65.8573C142.193 65.8573 142.412 65.8843 142.601 65.9382C142.795 65.9922 142.954 66.0893 143.078 66.2295C143.207 66.3644 143.304 66.5505 143.369 66.7878C143.434 67.0198 143.466 67.3164 143.466 67.6778V70H142.835V67.7992C142.835 67.3515 142.762 67.0144 142.617 66.7878C142.471 66.5613 142.207 66.448 141.824 66.448C141.684 66.448 141.546 66.4776 141.411 66.537C141.282 66.5909 141.163 66.6637 141.055 66.7554C140.947 66.8471 140.853 66.955 140.772 67.0791C140.691 67.1978 140.632 67.3245 140.594 67.4594V70H139.971V67.3704ZM147.614 68.9077C147.614 68.7351 147.546 68.6029 147.412 68.5112C147.277 68.4141 147.11 68.3386 146.91 68.2847C146.71 68.2253 146.492 68.1714 146.255 68.1229C146.023 68.0743 145.807 68.0096 145.607 67.9287C145.408 67.8478 145.241 67.7399 145.106 67.605C144.971 67.4648 144.903 67.2706 144.903 67.0225C144.903 66.8175 144.947 66.6422 145.033 66.4965C145.125 66.3509 145.243 66.2322 145.389 66.1405C145.534 66.0434 145.704 65.9733 145.899 65.9301C146.093 65.8816 146.295 65.8573 146.505 65.8573C146.883 65.8573 147.207 65.9059 147.476 66.003C147.751 66.0947 147.97 66.1918 148.132 66.2942L147.873 66.804C147.695 66.7069 147.501 66.6152 147.29 66.5289C147.085 66.4372 146.826 66.3913 146.514 66.3913C146.395 66.3913 146.276 66.4048 146.158 66.4318C146.044 66.4534 145.939 66.4884 145.842 66.537C145.75 66.5855 145.675 66.6503 145.615 66.7312C145.561 66.8067 145.534 66.9011 145.534 67.0144C145.534 67.1546 145.602 67.2625 145.737 67.338C145.872 67.4135 146.039 67.4783 146.238 67.5322C146.438 67.5807 146.654 67.6293 146.886 67.6778C147.123 67.721 147.342 67.7857 147.541 67.872C147.741 67.9583 147.908 68.0743 148.043 68.2199C148.178 68.3656 148.245 68.5625 148.245 68.8106C148.245 69.1828 148.097 69.4903 147.8 69.733C147.509 69.9757 147.069 70.0971 146.481 70.0971C146.303 70.0971 146.128 70.0809 145.955 70.0485C145.783 70.0162 145.621 69.973 145.47 69.9191C145.319 69.8651 145.181 69.8058 145.057 69.7411C144.933 69.671 144.831 69.6008 144.75 69.5307L145.073 69.0048C145.138 69.0695 145.224 69.1369 145.332 69.2071C145.44 69.2718 145.559 69.3311 145.688 69.3851C145.818 69.439 145.955 69.4822 146.101 69.5145C146.252 69.5469 146.403 69.5631 146.554 69.5631C146.7 69.5631 146.834 69.5523 146.959 69.5307C147.088 69.5037 147.201 69.466 147.298 69.4174C147.395 69.3635 147.471 69.2961 147.525 69.2152C147.584 69.1289 147.614 69.0264 147.614 68.9077Z" fill="#5D0100"/>
<path d="M46.7058 40.9511C46.6141 40.9134 46.5116 40.8864 46.3983 40.8702C46.2904 40.8486 46.1583 40.8378 46.0018 40.8378C45.7807 40.8378 45.5622 40.8783 45.3464 40.9592C45.1361 41.0401 44.9473 41.1723 44.7801 41.3557C44.6182 41.5391 44.4861 41.7791 44.3836 42.0758C44.2865 42.3725 44.2379 42.7366 44.2379 43.1681C44.2379 43.5565 44.2811 43.8963 44.3674 44.1876C44.4591 44.4789 44.5832 44.7216 44.7396 44.9158C44.9014 45.11 45.0929 45.2556 45.3141 45.3527C45.5406 45.4498 45.7915 45.4983 46.0666 45.4983C46.2068 45.4983 46.3363 45.4876 46.4549 45.466C46.579 45.439 46.6923 45.404 46.7948 45.3608V44.5517H47.3935V45.644L47.4016 45.6602C47.2398 45.7842 47.0348 45.8894 46.7867 45.9757C46.5385 46.0566 46.2365 46.0971 45.8805 46.0971C45.5406 46.0971 45.2251 46.0405 44.9338 45.9272C44.6479 45.8085 44.3998 45.6305 44.1894 45.3932C43.979 45.1558 43.8145 44.8538 43.6958 44.487C43.5826 44.1148 43.5259 43.6751 43.5259 43.1681C43.5259 42.6395 43.5907 42.1918 43.7201 41.825C43.8496 41.4528 44.0249 41.1507 44.246 40.9187C44.4672 40.6814 44.7234 40.5088 45.0147 40.4009C45.3114 40.293 45.6269 40.2391 45.9614 40.2391C46.1448 40.2391 46.3039 40.2472 46.4387 40.2634C46.5736 40.2742 46.6923 40.293 46.7948 40.32C46.8972 40.3416 46.9862 40.3712 47.0618 40.409C47.1427 40.4468 47.2209 40.4899 47.2964 40.5385H47.3045V41.8169H46.7058V40.9511ZM48.7254 42.27C48.9573 42.1351 49.2189 42.038 49.5102 41.9787C49.8015 41.9194 50.0874 41.8897 50.3679 41.8897C50.643 41.8897 50.8668 41.9328 51.0395 42.0191C51.2175 42.1055 51.355 42.2187 51.4521 42.359C51.5546 42.4938 51.622 42.6503 51.6544 42.8283C51.6921 43.0009 51.711 43.1762 51.711 43.3542C51.711 43.5592 51.7056 43.7776 51.6948 44.0096C51.6841 44.2415 51.676 44.4735 51.6706 44.7054C51.6706 44.9751 51.6867 45.2313 51.7191 45.4741H52.2612V46H51.1851L51.1123 45.3932H51.0718C51.0395 45.4417 50.9909 45.5037 50.9262 45.5793C50.8614 45.6548 50.7751 45.7303 50.6673 45.8058C50.5648 45.8759 50.438 45.938 50.287 45.9919C50.1359 46.0458 49.9579 46.0728 49.753 46.0728C49.3538 46.0728 49.0382 45.9703 48.8063 45.7654C48.5743 45.5604 48.4584 45.2799 48.4584 44.9239C48.4584 44.6488 48.5177 44.4195 48.6364 44.2361C48.7604 44.0527 48.9358 43.9125 49.1623 43.8154C49.3889 43.7183 49.6613 43.6617 49.9795 43.6455C50.3032 43.6293 50.6646 43.6509 51.0637 43.7102C51.0907 43.4621 51.0934 43.2571 51.0718 43.0953C51.0556 42.9281 51.0125 42.7959 50.9424 42.6988C50.8776 42.6017 50.7832 42.5343 50.6592 42.4965C50.5405 42.4534 50.3922 42.4318 50.2142 42.4318C49.9714 42.4318 49.7395 42.4669 49.5183 42.537C49.2972 42.6017 49.1003 42.6691 48.9277 42.7393L48.7254 42.27ZM49.9148 45.5307C50.0658 45.5307 50.2061 45.5064 50.3355 45.4579C50.465 45.4093 50.5783 45.3473 50.6754 45.2718C50.7724 45.1963 50.8534 45.1154 50.9181 45.0291C50.9828 44.9374 51.0314 44.8511 51.0637 44.7701V44.2038C50.7832 44.1552 50.5243 44.1309 50.287 44.1309C50.0496 44.1309 49.8447 44.1579 49.672 44.2119C49.4994 44.2604 49.3646 44.3386 49.2675 44.4465C49.1704 44.5544 49.1218 44.6946 49.1218 44.8672C49.1218 45.0452 49.1812 45.2017 49.2999 45.3365C49.4239 45.466 49.6289 45.5307 49.9148 45.5307ZM55.5269 40.3362H56.8377V44.6164C56.8377 44.665 56.8404 44.727 56.8457 44.8025C56.8511 44.8726 56.8565 44.9481 56.8619 45.0291C56.8727 45.11 56.8835 45.1909 56.8943 45.2718C56.9051 45.3473 56.9159 45.4147 56.9267 45.4741H57.4688V46H56.3926L56.3117 45.377H56.2794C56.1607 45.582 55.9827 45.7546 55.7454 45.8948C55.5134 46.0297 55.2437 46.0971 54.9362 46.0971C54.3267 46.0971 53.8763 45.9272 53.585 45.5874C53.2991 45.2421 53.1562 44.7081 53.1562 43.9853C53.1562 43.6455 53.2047 43.3461 53.3018 43.0872C53.3989 42.8229 53.5365 42.6044 53.7145 42.4318C53.8979 42.2538 54.1163 42.1189 54.3699 42.0272C54.6234 41.9355 54.9066 41.8897 55.2194 41.8897C55.3327 41.8897 55.4325 41.8924 55.5188 41.8978C55.6105 41.9032 55.6941 41.9113 55.7696 41.9221C55.8451 41.9328 55.9153 41.949 55.98 41.9706C56.0501 41.9868 56.1256 42.0057 56.2065 42.0272V40.8783H55.5269V40.3362ZM55.0414 45.555C55.3705 45.555 55.6294 45.4714 55.8182 45.3042C56.007 45.1315 56.1364 44.8753 56.2065 44.5355V42.6583C56.0879 42.5774 55.953 42.5181 55.802 42.4803C55.6563 42.4426 55.4622 42.4237 55.2194 42.4237C54.7879 42.4237 54.4481 42.5505 54.1999 42.804C53.9518 43.0521 53.8277 43.4459 53.8277 43.9853C53.8277 44.2065 53.8466 44.4141 53.8844 44.6083C53.9275 44.7971 53.995 44.9616 54.0867 45.1019C54.1838 45.2421 54.3105 45.3527 54.4669 45.4336C54.6234 45.5145 54.8149 45.555 55.0414 45.555ZM58.4285 42.27C58.6604 42.1351 58.922 42.038 59.2133 41.9787C59.5046 41.9194 59.7905 41.8897 60.071 41.8897C60.3461 41.8897 60.5699 41.9328 60.7425 42.0191C60.9205 42.1055 61.0581 42.2187 61.1552 42.359C61.2577 42.4938 61.3251 42.6503 61.3575 42.8283C61.3952 43.0009 61.4141 43.1762 61.4141 43.3542C61.4141 43.5592 61.4087 43.7776 61.3979 44.0096C61.3871 44.2415 61.379 44.4735 61.3736 44.7054C61.3736 44.9751 61.3898 45.2313 61.4222 45.4741H61.9643V46H60.8882L60.8153 45.3932H60.7749C60.7425 45.4417 60.694 45.5037 60.6293 45.5793C60.5645 45.6548 60.4782 45.7303 60.3703 45.8058C60.2678 45.8759 60.1411 45.938 59.9901 45.9919C59.839 46.0458 59.661 46.0728 59.456 46.0728C59.0569 46.0728 58.7413 45.9703 58.5094 45.7654C58.2774 45.5604 58.1614 45.2799 58.1614 44.9239C58.1614 44.6488 58.2208 44.4195 58.3395 44.2361C58.4635 44.0527 58.6388 43.9125 58.8654 43.8154C59.0919 43.7183 59.3643 43.6617 59.6826 43.6455C60.0062 43.6293 60.3676 43.6509 60.7668 43.7102C60.7938 43.4621 60.7965 43.2571 60.7749 43.0953C60.7587 42.9281 60.7156 42.7959 60.6454 42.6988C60.5807 42.6017 60.4863 42.5343 60.3622 42.4965C60.2436 42.4534 60.0952 42.4318 59.9172 42.4318C59.6745 42.4318 59.4425 42.4669 59.2214 42.537C59.0002 42.6017 58.8033 42.6691 58.6307 42.7393L58.4285 42.27ZM59.6179 45.5307C59.7689 45.5307 59.9091 45.5064 60.0386 45.4579C60.1681 45.4093 60.2813 45.3473 60.3784 45.2718C60.4755 45.1963 60.5564 45.1154 60.6212 45.0291C60.6859 44.9374 60.7344 44.8511 60.7668 44.7701V44.2038C60.4863 44.1552 60.2274 44.1309 59.9901 44.1309C59.7527 44.1309 59.5477 44.1579 59.3751 44.2119C59.2025 44.2604 59.0677 44.3386 58.9706 44.4465C58.8735 44.5544 58.8249 44.6946 58.8249 44.8672C58.8249 45.0452 58.8843 45.2017 59.0029 45.3365C59.127 45.466 59.332 45.5307 59.6179 45.5307ZM63.1586 43.3704C63.1586 43.3218 63.1559 43.2598 63.1505 43.1843C63.1505 43.1034 63.1478 43.0225 63.1424 42.9415C63.1371 42.8552 63.129 42.7716 63.1182 42.6907C63.1128 42.6098 63.1047 42.5397 63.0939 42.4803H62.5518V41.9544H63.636L63.7088 42.6098H63.7493C63.8032 42.5181 63.8733 42.4291 63.9597 42.3428C64.0514 42.2511 64.1565 42.1702 64.2752 42.1001C64.3939 42.0245 64.526 41.9652 64.6717 41.9221C64.8173 41.8789 64.971 41.8573 65.1329 41.8573C65.381 41.8573 65.5995 41.8843 65.7883 41.9382C65.9824 41.9922 66.1416 42.0893 66.2656 42.2295C66.3951 42.3644 66.4922 42.5505 66.5569 42.7878C66.6216 43.0198 66.654 43.3164 66.654 43.6778V46H66.0229V43.7992C66.0229 43.3515 65.9501 43.0144 65.8044 42.7878C65.6588 42.5613 65.3945 42.448 65.0115 42.448C64.8713 42.448 64.7337 42.4776 64.5989 42.537C64.4694 42.5909 64.3507 42.6637 64.2428 42.7554C64.135 42.8471 64.0406 42.955 63.9597 43.0791C63.8787 43.1978 63.8194 43.3245 63.7816 43.4594V46H63.1586V43.3704ZM70.8097 42.5774C70.6856 42.5343 70.5508 42.4992 70.4051 42.4723C70.2649 42.4399 70.1247 42.4237 69.9844 42.4237C69.4558 42.4237 69.062 42.5478 68.8031 42.7959C68.5442 43.044 68.4147 43.4378 68.4147 43.9772C68.4147 44.2146 68.4525 44.4276 68.528 44.6164C68.6035 44.7998 68.7114 44.9562 68.8516 45.0857C68.9919 45.2152 69.1591 45.3149 69.3533 45.3851C69.5529 45.4552 69.7713 45.4903 70.0087 45.4903C70.2622 45.4903 70.5076 45.4471 70.745 45.3608C70.9877 45.2745 71.19 45.1612 71.3518 45.021L71.635 45.4903C71.5595 45.555 71.4651 45.6224 71.3518 45.6925C71.2385 45.7627 71.1064 45.8301 70.9553 45.8948C70.8097 45.9542 70.6452 46.0027 70.4618 46.0405C70.2838 46.0782 70.0896 46.0971 69.8792 46.0971C69.5286 46.0971 69.2184 46.0485 68.9487 45.9515C68.6844 45.849 68.4633 45.706 68.2853 45.5226C68.1073 45.3338 67.9724 45.11 67.8807 44.8511C67.789 44.5867 67.7432 44.2955 67.7432 43.9772C67.7432 43.6374 67.789 43.3353 67.8807 43.071C67.9778 42.8067 68.1153 42.5855 68.2934 42.4075C68.4714 42.2295 68.6871 42.0947 68.9406 42.003C69.1942 41.9059 69.4774 41.8573 69.7902 41.8573C70.1894 41.8573 70.513 41.8924 70.7612 41.9625C71.0147 42.0326 71.2278 42.1108 71.4004 42.1972L71.3923 42.2214V43.3461H70.8097V42.5774ZM76.3894 45.4903C76.2924 45.5766 76.1764 45.6575 76.0415 45.733C75.9121 45.8085 75.7691 45.8732 75.6127 45.9272C75.4563 45.9811 75.2917 46.0216 75.1191 46.0485C74.9519 46.0809 74.782 46.0971 74.6094 46.0971C74.2857 46.0971 73.9999 46.0485 73.7517 45.9515C73.5036 45.849 73.2959 45.706 73.1287 45.5226C72.9615 45.3338 72.8347 45.11 72.7484 44.8511C72.6621 44.5921 72.619 44.3009 72.619 43.9772C72.619 43.6374 72.6648 43.3353 72.7565 43.071C72.8536 42.8067 72.9912 42.5855 73.1692 42.4075C73.3472 42.2295 73.5629 42.0947 73.8165 42.003C74.07 41.9059 74.3532 41.8573 74.666 41.8573C74.8926 41.8573 75.1164 41.887 75.3376 41.9463C75.5588 42.0057 75.7529 42.1189 75.9202 42.2862C76.0928 42.448 76.2249 42.6745 76.3166 42.9658C76.4083 43.2517 76.4407 43.6239 76.4137 44.0824H73.2824C73.2824 44.5679 73.4119 44.932 73.6708 45.1747C73.9351 45.412 74.2857 45.5307 74.7227 45.5307C74.8683 45.5307 75.0113 45.5145 75.1515 45.4822C75.2971 45.4444 75.4347 45.4013 75.5641 45.3527C75.6936 45.3042 75.8069 45.2502 75.904 45.1909C76.0065 45.1315 76.0847 45.0776 76.1386 45.0291L76.3894 45.4903ZM74.6822 42.3913C74.5042 42.3913 74.3343 42.4102 74.1725 42.448C74.016 42.4857 73.8758 42.5505 73.7517 42.6422C73.6331 42.7285 73.5333 42.8444 73.4524 42.9901C73.3768 43.1303 73.3283 43.3056 73.3067 43.516H75.8231C75.7961 43.16 75.6801 42.8849 75.4751 42.6907C75.2756 42.4911 75.0113 42.3913 74.6822 42.3913Z" fill="#5D0100"/>
<path d="M44.2137 6.19897C44.3755 6.28528 44.5562 6.3581 44.7558 6.41744C44.9608 6.47138 45.1657 6.49835 45.3707 6.49835C45.5487 6.49835 45.7159 6.48217 45.8724 6.4498C46.0288 6.41204 46.1636 6.3554 46.2769 6.27989C46.3956 6.19897 46.4873 6.09918 46.552 5.98051C46.6221 5.86184 46.6572 5.7216 46.6572 5.55977C46.6572 5.33861 46.5817 5.15791 46.4307 5.01767C46.285 4.87742 46.1016 4.75335 45.8805 4.64547C45.6593 4.53759 45.4193 4.4324 45.1603 4.32992C44.9014 4.22743 44.6614 4.10606 44.4402 3.96581C44.2191 3.82557 44.033 3.65565 43.8819 3.45607C43.7363 3.25109 43.6635 2.99218 43.6635 2.67932C43.6635 2.45816 43.7066 2.25858 43.7929 2.08057C43.8846 1.90257 44.0114 1.75153 44.1732 1.62747C44.335 1.5034 44.5292 1.40901 44.7558 1.34428C44.9877 1.27415 45.2439 1.23909 45.5244 1.23909C45.8481 1.23909 46.1421 1.26337 46.4064 1.31191C46.6707 1.35507 46.8811 1.4144 47.0375 1.48992L47.0537 1.48183V1.49801H47.0618L47.0537 1.52228V2.81687H46.4549V1.95111C46.3201 1.91875 46.1717 1.89178 46.0099 1.8702C45.8481 1.84863 45.6755 1.83784 45.4921 1.83784C45.3141 1.83784 45.1522 1.85941 45.0066 1.90257C44.8664 1.94572 44.745 2.00506 44.6425 2.08057C44.5454 2.1507 44.4699 2.2343 44.416 2.3314C44.362 2.42849 44.335 2.53098 44.335 2.63886C44.335 2.84923 44.4079 3.02454 44.5535 3.16479C44.7045 3.30504 44.8906 3.4318 45.1118 3.54507C45.333 3.65296 45.573 3.76084 45.8319 3.86872C46.0908 3.9766 46.3309 4.10336 46.552 4.249C46.7732 4.38925 46.9566 4.55917 47.1022 4.75875C47.2533 4.95833 47.3288 5.20646 47.3288 5.50313C47.3288 5.74587 47.2829 5.96433 47.1912 6.15852C47.1049 6.35271 46.9782 6.51992 46.8109 6.66017C46.6491 6.80042 46.4468 6.9083 46.2041 6.98382C45.9668 7.05934 45.6971 7.09709 45.395 7.09709C45.19 7.09709 44.9958 7.08091 44.8124 7.04855C44.629 7.01618 44.4591 6.97573 44.3027 6.92718C44.1516 6.87863 44.0141 6.82739 43.89 6.77345C43.7714 6.71951 43.677 6.67366 43.6068 6.6359L43.6149 6.61162V5.30086H44.2137V6.19897ZM48.6283 4.37037C48.6283 4.32182 48.6256 4.25979 48.6202 4.18428C48.6202 4.10336 48.6175 4.02245 48.6121 3.94154C48.6067 3.85523 48.5986 3.77163 48.5878 3.69071C48.5824 3.6098 48.5743 3.53968 48.5636 3.48034H48.0215V2.95442H49.0976L49.1785 3.5208H49.2189C49.3646 3.33201 49.548 3.17558 49.7691 3.05151C49.9957 2.92205 50.2708 2.85732 50.5944 2.85732C51.1716 2.85732 51.6058 3.01645 51.8971 3.3347C52.1884 3.65296 52.334 4.17349 52.334 4.8963C52.334 5.23613 52.2828 5.54359 52.1803 5.81869C52.0832 6.0884 51.943 6.31765 51.7596 6.50644C51.5762 6.69523 51.355 6.84087 51.0961 6.94336C50.8372 7.04585 50.5513 7.09709 50.2384 7.09709C50.1252 7.09709 50.0227 7.0917 49.931 7.08091C49.8447 7.07552 49.7637 7.06473 49.6882 7.04855C49.6181 7.03776 49.548 7.02158 49.4779 7C49.4077 6.97842 49.3322 6.95145 49.2513 6.91909V8.61823H48.6283V4.37037ZM50.4893 3.44798C50.3274 3.44798 50.1737 3.47765 50.0281 3.53698C49.8878 3.59632 49.7611 3.67453 49.6478 3.77163C49.5399 3.86872 49.4509 3.9766 49.3808 4.09527C49.3106 4.21394 49.2675 4.33261 49.2513 4.45128V6.29607C49.37 6.37698 49.5021 6.44171 49.6478 6.49026C49.7988 6.53341 49.9957 6.55499 50.2384 6.55499C50.67 6.55499 51.0152 6.41474 51.2741 6.13425C51.533 5.84836 51.6625 5.43301 51.6625 4.88821C51.6625 4.42971 51.5708 4.07639 51.3874 3.82826C51.2094 3.57474 50.91 3.44798 50.4893 3.44798ZM56.9833 6.49026C56.8862 6.57656 56.7702 6.65747 56.6354 6.73299C56.5059 6.80851 56.363 6.87324 56.2065 6.92718C56.0501 6.98112 55.8856 7.02158 55.713 7.04855C55.5458 7.08091 55.3759 7.09709 55.2032 7.09709C54.8796 7.09709 54.5937 7.04855 54.3456 6.95145C54.0975 6.84896 53.8898 6.70602 53.7226 6.52262C53.5553 6.33383 53.4286 6.10997 53.3423 5.85105C53.256 5.59214 53.2128 5.30086 53.2128 4.97721C53.2128 4.63738 53.2587 4.33531 53.3504 4.071C53.4475 3.80669 53.585 3.58553 53.763 3.40752C53.941 3.22952 54.1568 3.09467 54.4103 3.00297C54.6638 2.90587 54.947 2.85732 55.2599 2.85732C55.4864 2.85732 55.7103 2.88699 55.9314 2.94633C56.1526 3.00566 56.3468 3.11894 56.514 3.28616C56.6866 3.44798 56.8188 3.67453 56.9105 3.96581C57.0022 4.2517 57.0345 4.6239 57.0076 5.08239H53.8763C53.8763 5.56786 54.0058 5.93197 54.2647 6.1747C54.529 6.41204 54.8796 6.53071 55.3165 6.53071C55.4622 6.53071 55.6051 6.51453 55.7454 6.48217C55.891 6.44441 56.0285 6.40125 56.158 6.35271C56.2875 6.30416 56.4007 6.25022 56.4978 6.19088C56.6003 6.13155 56.6785 6.07761 56.7325 6.02906L56.9833 6.49026ZM55.2761 3.39134C55.0981 3.39134 54.9281 3.41022 54.7663 3.44798C54.6099 3.48574 54.4696 3.55047 54.3456 3.64217C54.2269 3.72847 54.1271 3.84445 54.0462 3.99009C53.9707 4.13033 53.9221 4.30564 53.9006 4.51601H56.4169C56.3899 4.16 56.274 3.8849 56.069 3.69071C55.8694 3.49113 55.6051 3.39134 55.2761 3.39134ZM61.8348 6.49026C61.7377 6.57656 61.6218 6.65747 61.4869 6.73299C61.3575 6.80851 61.2145 6.87324 61.0581 6.92718C60.9017 6.98112 60.7371 7.02158 60.5645 7.04855C60.3973 7.08091 60.2274 7.09709 60.0548 7.09709C59.7311 7.09709 59.4452 7.04855 59.1971 6.95145C58.949 6.84896 58.7413 6.70602 58.5741 6.52262C58.4069 6.33383 58.2801 6.10997 58.1938 5.85105C58.1075 5.59214 58.0644 5.30086 58.0644 4.97721C58.0644 4.63738 58.1102 4.33531 58.2019 4.071C58.299 3.80669 58.4365 3.58553 58.6146 3.40752C58.7926 3.22952 59.0083 3.09467 59.2618 3.00297C59.5154 2.90587 59.7986 2.85732 60.1114 2.85732C60.338 2.85732 60.5618 2.88699 60.783 2.94633C61.0041 3.00566 61.1983 3.11894 61.3655 3.28616C61.5382 3.44798 61.6703 3.67453 61.762 3.96581C61.8537 4.2517 61.8861 4.6239 61.8591 5.08239H58.7278C58.7278 5.56786 58.8573 5.93197 59.1162 6.1747C59.3805 6.41204 59.7311 6.53071 60.1681 6.53071C60.3137 6.53071 60.4566 6.51453 60.5969 6.48217C60.7425 6.44441 60.8801 6.40125 61.0095 6.35271C61.139 6.30416 61.2523 6.25022 61.3494 6.19088C61.4519 6.13155 61.5301 6.07761 61.584 6.02906L61.8348 6.49026ZM60.1276 3.39134C59.9496 3.39134 59.7797 3.41022 59.6179 3.44798C59.4614 3.48574 59.3212 3.55047 59.1971 3.64217C59.0784 3.72847 58.9787 3.84445 58.8977 3.99009C58.8222 4.13033 58.7737 4.30564 58.7521 4.51601H61.2685C61.2415 4.16 61.1255 3.8849 60.9205 3.69071C60.721 3.49113 60.4566 3.39134 60.1276 3.39134ZM65.23 1.33619H66.5407V5.61641C66.5407 5.66496 66.5434 5.72699 66.5488 5.80251C66.5542 5.87263 66.5596 5.94815 66.565 6.02906C66.5758 6.10997 66.5866 6.19088 66.5974 6.2718C66.6082 6.34731 66.6189 6.41474 66.6297 6.47407H67.1718V7H66.0957L66.0148 6.37698H65.9824C65.8638 6.58196 65.6858 6.75457 65.4484 6.89481C65.2165 7.02967 64.9468 7.09709 64.6393 7.09709C64.0298 7.09709 63.5794 6.92718 63.2881 6.58735C63.0022 6.24213 62.8593 5.70811 62.8593 4.9853C62.8593 4.64547 62.9078 4.3461 63.0049 4.08718C63.102 3.82287 63.2395 3.60441 63.4175 3.4318C63.6009 3.25379 63.8194 3.11894 64.0729 3.02724C64.3265 2.93554 64.6096 2.88969 64.9225 2.88969C65.0358 2.88969 65.1356 2.89239 65.2219 2.89778C65.3136 2.90317 65.3972 2.91127 65.4727 2.92205C65.5482 2.93284 65.6183 2.94902 65.6831 2.9706C65.7532 2.98678 65.8287 3.00566 65.9096 3.02724V1.87829H65.23V1.33619ZM64.7445 6.55499C65.0735 6.55499 65.3325 6.47138 65.5212 6.30416C65.71 6.13155 65.8395 5.87533 65.9096 5.5355V3.65835C65.791 3.57744 65.6561 3.5181 65.5051 3.48034C65.3594 3.44259 65.1652 3.42371 64.9225 3.42371C64.491 3.42371 64.1511 3.55047 63.903 3.80399C63.6549 4.05212 63.5308 4.44589 63.5308 4.9853C63.5308 5.20646 63.5497 5.41413 63.5875 5.60832C63.6306 5.79711 63.698 5.96163 63.7897 6.10188C63.8868 6.24213 64.0136 6.35271 64.17 6.43362C64.3265 6.51453 64.5179 6.55499 64.7445 6.55499Z" fill="#5D0100"/>
<path d="M46.6977 30.4027H44.157V33H43.4855V27.3362H44.157V29.804H46.6977V27.3362H47.3692V33H46.6977V30.4027ZM52.1318 32.4903C52.0347 32.5766 51.9187 32.6575 51.7838 32.733C51.6544 32.8085 51.5114 32.8732 51.355 32.9272C51.1986 32.9811 51.0341 33.0216 50.8614 33.0485C50.6942 33.0809 50.5243 33.0971 50.3517 33.0971C50.0281 33.0971 49.7422 33.0485 49.494 32.9515C49.2459 32.849 49.0382 32.706 48.871 32.5226C48.7038 32.3338 48.577 32.11 48.4907 31.8511C48.4044 31.5921 48.3613 31.3009 48.3613 30.9772C48.3613 30.6374 48.4071 30.3353 48.4988 30.071C48.5959 29.8067 48.7335 29.5855 48.9115 29.4075C49.0895 29.2295 49.3052 29.0947 49.5588 29.003C49.8123 28.9059 50.0955 28.8573 50.4083 28.8573C50.6349 28.8573 50.8588 28.887 51.0799 28.9463C51.3011 29.0057 51.4953 29.1189 51.6625 29.2862C51.8351 29.448 51.9672 29.6745 52.0589 29.9658C52.1506 30.2517 52.183 30.6239 52.156 31.0824H49.0248C49.0248 31.5679 49.1542 31.932 49.4131 32.1747C49.6774 32.412 50.0281 32.5307 50.465 32.5307C50.6106 32.5307 50.7536 32.5145 50.8938 32.4822C51.0395 32.4444 51.177 32.4013 51.3065 32.3527C51.4359 32.3042 51.5492 32.2502 51.6463 32.1909C51.7488 32.1315 51.827 32.0776 51.8809 32.0291L52.1318 32.4903ZM50.4245 29.3913C50.2465 29.3913 50.0766 29.4102 49.9148 29.448C49.7584 29.4857 49.6181 29.5505 49.494 29.6422C49.3754 29.7285 49.2756 29.8444 49.1947 29.9901C49.1192 30.1303 49.0706 30.3056 49.049 30.516H51.5654C51.5384 30.16 51.4224 29.8849 51.2175 29.6907C51.0179 29.4911 50.7536 29.3913 50.4245 29.3913ZM53.5769 29.27C53.8089 29.1351 54.0705 29.038 54.3618 28.9787C54.653 28.9194 54.9389 28.8897 55.2194 28.8897C55.4945 28.8897 55.7184 28.9328 55.891 29.0191C56.069 29.1055 56.2065 29.2187 56.3036 29.359C56.4061 29.4938 56.4736 29.6503 56.5059 29.8283C56.5437 30.0009 56.5626 30.1762 56.5626 30.3542C56.5626 30.5592 56.5572 30.7776 56.5464 31.0096C56.5356 31.2415 56.5275 31.4735 56.5221 31.7054C56.5221 31.9751 56.5383 32.2313 56.5707 32.4741H57.1128V33H56.0366L55.9638 32.3932H55.9234C55.891 32.4417 55.8424 32.5037 55.7777 32.5793C55.713 32.6548 55.6267 32.7303 55.5188 32.8058C55.4163 32.8759 55.2895 32.938 55.1385 32.9919C54.9875 33.0458 54.8095 33.0728 54.6045 33.0728C54.2053 33.0728 53.8898 32.9703 53.6578 32.7654C53.4259 32.5604 53.3099 32.2799 53.3099 31.9239C53.3099 31.6488 53.3692 31.4195 53.4879 31.2361C53.612 31.0527 53.7873 30.9125 54.0138 30.8154C54.2404 30.7183 54.5128 30.6617 54.8311 30.6455C55.1547 30.6293 55.5161 30.6509 55.9153 30.7102C55.9422 30.4621 55.9449 30.2571 55.9234 30.0953C55.9072 29.9281 55.864 29.7959 55.7939 29.6988C55.7292 29.6017 55.6348 29.5343 55.5107 29.4965C55.392 29.4534 55.2437 29.4318 55.0657 29.4318C54.823 29.4318 54.591 29.4669 54.3699 29.537C54.1487 29.6017 53.9518 29.6691 53.7792 29.7393L53.5769 29.27ZM54.7663 32.5307C54.9174 32.5307 55.0576 32.5064 55.1871 32.4579C55.3165 32.4093 55.4298 32.3473 55.5269 32.2718C55.624 32.1963 55.7049 32.1154 55.7696 32.0291C55.8344 31.9374 55.8829 31.8511 55.9153 31.7701V31.2038C55.6348 31.1552 55.3759 31.1309 55.1385 31.1309C54.9012 31.1309 54.6962 31.1579 54.5236 31.2119C54.351 31.2604 54.2161 31.3386 54.119 31.4465C54.0219 31.5544 53.9734 31.6946 53.9734 31.8672C53.9734 32.0452 54.0327 32.2017 54.1514 32.3365C54.2755 32.466 54.4804 32.5307 54.7663 32.5307ZM58.0886 33V32.4579H59.1809V29.4965H58.0886V28.9544H59.6017L59.7311 29.4803H59.7716C59.955 29.3131 60.16 29.1702 60.3865 29.0515C60.6131 28.9328 60.8828 28.8735 61.1956 28.8735C61.379 28.8735 61.5247 28.9086 61.6326 28.9787C61.7458 29.0488 61.8321 29.1513 61.8915 29.2862C61.9562 29.421 61.9994 29.5855 62.0209 29.7797C62.0425 29.9685 62.0533 30.1843 62.0533 30.427L61.4869 30.4351C61.4869 30.0899 61.4519 29.8364 61.3817 29.6745C61.317 29.5127 61.1956 29.4318 61.0176 29.4318C60.8504 29.4318 60.6994 29.4561 60.5645 29.5046C60.4297 29.5532 60.311 29.6125 60.2085 29.6826C60.1114 29.7527 60.0278 29.8229 59.9577 29.893C59.8876 29.9631 59.8363 30.0225 59.804 30.071V32.4579H61.3575V33H58.0886ZM62.657 28.9544H63.6198V28.1534L64.2509 27.9754V28.9544H66.4113V29.4965H64.2509V31.406C64.2509 31.7998 64.3453 32.0911 64.5341 32.2799C64.7283 32.4687 65.0034 32.5631 65.3594 32.5631C65.6022 32.5631 65.8125 32.5172 65.9905 32.4255C66.1739 32.3338 66.3385 32.234 66.4841 32.1262L66.6945 32.6035C66.5057 32.7546 66.2791 32.8759 66.0148 32.9676C65.7559 33.0593 65.4889 33.1052 65.2138 33.1052C64.998 33.1052 64.793 33.0728 64.5989 33.0081C64.4101 32.9488 64.2428 32.8544 64.0972 32.7249C63.9516 32.5954 63.8356 32.4309 63.7493 32.2313C63.663 32.0264 63.6198 31.7836 63.6198 31.5031V29.4965H62.657V28.9544ZM72.6432 33V32.4579H73.7355V29.4965H72.6432V28.9544H74.1563L74.2857 29.4803H74.3262C74.5096 29.3131 74.7146 29.1702 74.9411 29.0515C75.1677 28.9328 75.4374 28.8735 75.7502 28.8735C75.9336 28.8735 76.0793 28.9086 76.1872 28.9787C76.3004 29.0488 76.3868 29.1513 76.4461 29.2862C76.5108 29.421 76.554 29.5855 76.5755 29.7797C76.5971 29.9685 76.6079 30.1843 76.6079 30.427L76.0415 30.4351C76.0415 30.0899 76.0065 29.8364 75.9363 29.6745C75.8716 29.5127 75.7502 29.4318 75.5722 29.4318C75.405 29.4318 75.254 29.4561 75.1191 29.5046C74.9843 29.5532 74.8656 29.6125 74.7631 29.6826C74.666 29.7527 74.5824 29.8229 74.5123 29.893C74.4422 29.9631 74.3909 30.0225 74.3586 30.071V32.4579H75.9121V33H72.6432ZM77.8346 29.27C78.0666 29.1351 78.3282 29.038 78.6195 28.9787C78.9107 28.9194 79.1966 28.8897 79.4771 28.8897C79.7522 28.8897 79.9761 28.9328 80.1487 29.0191C80.3267 29.1055 80.4642 29.2187 80.5613 29.359C80.6638 29.4938 80.7312 29.6503 80.7636 29.8283C80.8014 30.0009 80.8202 30.1762 80.8202 30.3542C80.8202 30.5592 80.8149 30.7776 80.8041 31.0096C80.7933 31.2415 80.7852 31.4735 80.7798 31.7054C80.7798 31.9751 80.796 32.2313 80.8283 32.4741H81.3704V33H80.2943L80.2215 32.3932H80.181C80.1487 32.4417 80.1001 32.5037 80.0354 32.5793C79.9707 32.6548 79.8844 32.7303 79.7765 32.8058C79.674 32.8759 79.5472 32.938 79.3962 32.9919C79.2452 33.0458 79.0672 33.0728 78.8622 33.0728C78.463 33.0728 78.1475 32.9703 77.9155 32.7654C77.6836 32.5604 77.5676 32.2799 77.5676 31.9239C77.5676 31.6488 77.6269 31.4195 77.7456 31.2361C77.8697 31.0527 78.045 30.9125 78.2715 30.8154C78.4981 30.7183 78.7705 30.6617 79.0887 30.6455C79.4124 30.6293 79.7738 30.6509 80.173 30.7102C80.1999 30.4621 80.2026 30.2571 80.181 30.0953C80.1649 29.9281 80.1217 29.7959 80.0516 29.6988C79.9869 29.6017 79.8925 29.5343 79.7684 29.4965C79.6497 29.4534 79.5014 29.4318 79.3234 29.4318C79.0806 29.4318 78.8487 29.4669 78.6275 29.537C78.4064 29.6017 78.2095 29.6691 78.0369 29.7393L77.8346 29.27ZM79.024 32.5307C79.175 32.5307 79.3153 32.5064 79.4447 32.4579C79.5742 32.4093 79.6875 32.3473 79.7846 32.2718C79.8817 32.1963 79.9626 32.1154 80.0273 32.0291C80.092 31.9374 80.1406 31.8511 80.173 31.7701V31.2038C79.8925 31.1552 79.6335 31.1309 79.3962 31.1309C79.1589 31.1309 78.9539 31.1579 78.7813 31.2119C78.6087 31.2604 78.4738 31.3386 78.3767 31.4465C78.2796 31.5544 78.2311 31.6946 78.2311 31.8672C78.2311 32.0452 78.2904 32.2017 78.4091 32.3365C78.5331 32.466 78.7381 32.5307 79.024 32.5307ZM82.0631 28.9544H83.026V28.1534L83.6571 27.9754V28.9544H85.8174V29.4965H83.6571V31.406C83.6571 31.7998 83.7515 32.0911 83.9403 32.2799C84.1345 32.4687 84.4096 32.5631 84.7656 32.5631C85.0083 32.5631 85.2187 32.5172 85.3967 32.4255C85.5801 32.3338 85.7446 32.234 85.8902 32.1262L86.1006 32.6035C85.9118 32.7546 85.6853 32.8759 85.421 32.9676C85.162 33.0593 84.895 33.1052 84.6199 33.1052C84.4042 33.1052 84.1992 33.0728 84.005 33.0081C83.8162 32.9488 83.649 32.8544 83.5034 32.7249C83.3577 32.5954 83.2417 32.4309 83.1554 32.2313C83.0691 32.0264 83.026 31.7836 83.026 31.5031V29.4965H82.0631V28.9544ZM90.9441 32.4903C90.847 32.5766 90.731 32.6575 90.5961 32.733C90.4667 32.8085 90.3237 32.8732 90.1673 32.9272C90.0109 32.9811 89.8464 33.0216 89.6737 33.0485C89.5065 33.0809 89.3366 33.0971 89.164 33.0971C88.8404 33.0971 88.5545 33.0485 88.3063 32.9515C88.0582 32.849 87.8505 32.706 87.6833 32.5226C87.5161 32.3338 87.3893 32.11 87.303 31.8511C87.2167 31.5921 87.1736 31.3009 87.1736 30.9772C87.1736 30.6374 87.2194 30.3353 87.3111 30.071C87.4082 29.8067 87.5458 29.5855 87.7238 29.4075C87.9018 29.2295 88.1175 29.0947 88.3711 29.003C88.6246 28.9059 88.9078 28.8573 89.2206 28.8573C89.4472 28.8573 89.671 28.887 89.8922 28.9463C90.1134 29.0057 90.3076 29.1189 90.4748 29.2862C90.6474 29.448 90.7795 29.6745 90.8712 29.9658C90.9629 30.2517 90.9953 30.6239 90.9683 31.0824H87.8371C87.8371 31.5679 87.9665 31.932 88.2254 32.1747C88.4897 32.412 88.8404 32.5307 89.2773 32.5307C89.4229 32.5307 89.5659 32.5145 89.7061 32.4822C89.8518 32.4444 89.9893 32.4013 90.1188 32.3527C90.2482 32.3042 90.3615 32.2502 90.4586 32.1909C90.5611 32.1315 90.6393 32.0776 90.6932 32.0291L90.9441 32.4903ZM89.2368 29.3913C89.0588 29.3913 88.8889 29.4102 88.7271 29.448C88.5707 29.4857 88.4304 29.5505 88.3063 29.6422C88.1877 29.7285 88.0879 29.8444 88.007 29.9901C87.9314 30.1303 87.8829 30.3056 87.8613 30.516H90.3777C90.3507 30.16 90.2347 29.8849 90.0298 29.6907C89.8302 29.4911 89.5659 29.3913 89.2368 29.3913Z" fill="#5D0100"/>
<path d="M43.8091 14.3928C44.0141 14.3443 44.2353 14.3119 44.4726 14.2957C44.7099 14.2795 44.9446 14.2715 45.1765 14.2715C45.4247 14.2715 45.6755 14.2957 45.929 14.3443C46.1879 14.3928 46.4226 14.4818 46.6329 14.6113C46.8433 14.7407 47.0132 14.9187 47.1427 15.1453C47.2775 15.3719 47.345 15.6604 47.345 16.0111C47.345 16.3563 47.2829 16.6476 47.1589 16.8849C47.0348 17.1222 46.8703 17.3164 46.6653 17.4675C46.4603 17.6131 46.2257 17.7183 45.9614 17.783C45.6971 17.8478 45.4247 17.8801 45.1442 17.8801C45.1172 17.8801 45.0713 17.8801 45.0066 17.8801C44.9473 17.8801 44.8825 17.8801 44.8124 17.8801C44.7477 17.8747 44.683 17.8693 44.6182 17.8639C44.5535 17.8585 44.5077 17.8531 44.4807 17.8478V20H43.8091V14.3928ZM45.1927 14.854C45.0525 14.854 44.9176 14.8567 44.7881 14.8621C44.6587 14.8675 44.5562 14.881 44.4807 14.9026V17.249C44.5077 17.2598 44.5508 17.2679 44.6101 17.2733C44.6695 17.2733 44.7315 17.276 44.7962 17.2814C44.861 17.2814 44.923 17.2814 44.9823 17.2814C45.0417 17.2814 45.0848 17.2814 45.1118 17.2814C45.2952 17.2814 45.4759 17.2652 45.6539 17.2328C45.8373 17.1951 46.0018 17.1303 46.1475 17.0386C46.2931 16.9469 46.4091 16.8175 46.4954 16.6503C46.5871 16.483 46.6329 16.27 46.6329 16.0111C46.6329 15.7899 46.5898 15.6065 46.5035 15.4609C46.4226 15.3098 46.312 15.1912 46.1717 15.1048C46.0369 15.0131 45.8832 14.9484 45.7105 14.9107C45.5379 14.8729 45.3653 14.854 45.1927 14.854ZM48.3127 17.9772C48.3127 17.3245 48.4826 16.8094 48.8225 16.4318C49.1623 16.0488 49.6478 15.8573 50.2789 15.8573C50.6187 15.8573 50.91 15.914 51.1527 16.0272C51.4009 16.1351 51.6058 16.2835 51.7677 16.4723C51.9295 16.661 52.0482 16.8849 52.1237 17.1438C52.2046 17.4027 52.245 17.6805 52.245 17.9772C52.245 18.3009 52.2019 18.5948 52.1156 18.8591C52.0293 19.1181 51.9025 19.3392 51.7353 19.5226C51.5681 19.706 51.3604 19.849 51.1123 19.9515C50.8695 20.0485 50.5917 20.0971 50.2789 20.0971C49.9445 20.0971 49.6532 20.0432 49.405 19.9353C49.1569 19.822 48.9519 19.671 48.7901 19.4822C48.6283 19.2934 48.5069 19.0695 48.426 18.8106C48.3505 18.5517 48.3127 18.2739 48.3127 17.9772ZM48.9843 17.9772C48.9843 18.166 49.0059 18.3548 49.049 18.5436C49.0976 18.7324 49.1731 18.9023 49.2756 19.0533C49.3781 19.2044 49.5102 19.3257 49.672 19.4174C49.8393 19.5091 50.0415 19.555 50.2789 19.555C50.7104 19.555 51.0341 19.4228 51.2498 19.1585C51.471 18.8888 51.5816 18.495 51.5816 17.9772C51.5816 17.783 51.5573 17.5942 51.5087 17.4108C51.4656 17.222 51.3901 17.0521 51.2822 16.9011C51.1797 16.75 51.0448 16.6287 50.8776 16.537C50.7158 16.4453 50.5162 16.3994 50.2789 16.3994C49.8474 16.3994 49.5237 16.5316 49.3079 16.7959C49.0922 17.0602 48.9843 17.454 48.9843 17.9772ZM55.446 16.8444L56.2551 19.0938H56.3117L56.8862 15.9544H57.4769L56.6839 20H55.9638L55.1871 17.7668H55.1628L54.3537 20H53.6336L52.784 15.9544H53.407L54.0624 19.11H54.1109L54.8958 16.8444H55.446ZM61.8348 19.4903C61.7377 19.5766 61.6218 19.6575 61.4869 19.733C61.3575 19.8085 61.2145 19.8732 61.0581 19.9272C60.9017 19.9811 60.7371 20.0216 60.5645 20.0485C60.3973 20.0809 60.2274 20.0971 60.0548 20.0971C59.7311 20.0971 59.4452 20.0485 59.1971 19.9515C58.949 19.849 58.7413 19.706 58.5741 19.5226C58.4069 19.3338 58.2801 19.11 58.1938 18.8511C58.1075 18.5921 58.0644 18.3009 58.0644 17.9772C58.0644 17.6374 58.1102 17.3353 58.2019 17.071C58.299 16.8067 58.4365 16.5855 58.6146 16.4075C58.7926 16.2295 59.0083 16.0947 59.2618 16.003C59.5154 15.9059 59.7986 15.8573 60.1114 15.8573C60.338 15.8573 60.5618 15.887 60.783 15.9463C61.0041 16.0057 61.1983 16.1189 61.3655 16.2862C61.5382 16.448 61.6703 16.6745 61.762 16.9658C61.8537 17.2517 61.8861 17.6239 61.8591 18.0824H58.7278C58.7278 18.5679 58.8573 18.932 59.1162 19.1747C59.3805 19.412 59.7311 19.5307 60.1681 19.5307C60.3137 19.5307 60.4566 19.5145 60.5969 19.4822C60.7425 19.4444 60.8801 19.4013 61.0095 19.3527C61.139 19.3042 61.2523 19.2502 61.3494 19.1909C61.4519 19.1315 61.5301 19.0776 61.584 19.0291L61.8348 19.4903ZM60.1276 16.3913C59.9496 16.3913 59.7797 16.4102 59.6179 16.448C59.4614 16.4857 59.3212 16.5505 59.1971 16.6422C59.0784 16.7285 58.9787 16.8444 58.8977 16.9901C58.8222 17.1303 58.7737 17.3056 58.7521 17.516H61.2685C61.2415 17.16 61.1255 16.8849 60.9205 16.6907C60.721 16.4911 60.4566 16.3913 60.1276 16.3913ZM62.9402 20V19.4579H64.0325V16.4965H62.9402V15.9544H64.4532L64.5827 16.4803H64.6231C64.8065 16.3131 65.0115 16.1702 65.2381 16.0515C65.4646 15.9328 65.7343 15.8735 66.0472 15.8735C66.2306 15.8735 66.3762 15.9086 66.4841 15.9787C66.5974 16.0488 66.6837 16.1513 66.743 16.2862C66.8077 16.421 66.8509 16.5855 66.8725 16.7797C66.894 16.9685 66.9048 17.1843 66.9048 17.427L66.3385 17.4351C66.3385 17.0899 66.3034 16.8364 66.2333 16.6745C66.1685 16.5127 66.0472 16.4318 65.8692 16.4318C65.7019 16.4318 65.5509 16.4561 65.4161 16.5046C65.2812 16.5532 65.1625 16.6125 65.0601 16.6826C64.963 16.7527 64.8793 16.8229 64.8092 16.893C64.7391 16.9631 64.6879 17.0225 64.6555 17.071V19.4579H66.209V20H62.9402Z" fill="#5D0100"/>
<circle cx="0.75" cy="31.75" r="0.75" fill="#5D0100"/>
<circle cx="11.75" cy="31.75" r="0.75" fill="#5D0100"/>
<circle cx="22.75" cy="31.75" r="0.75" fill="#5D0100"/>
<circle cx="33.75" cy="31.75" r="0.75" fill="#5D0100"/>
<line x1="4.37114e-08" y1="57.5" x2="34" y2="57.5" stroke="#5D0100"/>
<line x1="1.74846e-08" y1="4.8" x2="34" y2="4.8" stroke="#5D0100" stroke-width="0.4"/>
<line x1="-1.31134e-08" y1="44.85" x2="34" y2="44.85" stroke="#5D0100" stroke-width="0.3" stroke-dasharray="1.1 1.1"/>
<line y1="18.7" x2="1" y2="18.7" stroke="#5D0100" stroke-width="0.6"/>
<line x1="6" y1="18.7" x2="7" y2="18.7" stroke="#5D0100" stroke-width="0.6"/>
<line x1="2" y1="18.7" x2="5" y2="18.7" stroke="#5D0100" stroke-width="0.6"/>
<line x1="9" y1="18.7" x2="10" y2="18.7" stroke="#5D0100" stroke-width="0.6"/>
<line x1="15" y1="18.7" x2="16" y2="18.7" stroke="#5D0100" stroke-width="0.6"/>
<line x1="11" y1="18.7" x2="14" y2="18.7" stroke="#5D0100" stroke-width="0.6"/>
<line x1="18" y1="18.7" x2="19" y2="18.7" stroke="#5D0100" stroke-width="0.6"/>
<line x1="24" y1="18.7" x2="25" y2="18.7" stroke="#5D0100" stroke-width="0.6"/>
<line x1="20" y1="18.7" x2="23" y2="18.7" stroke="#5D0100" stroke-width="0.6"/>
<line x1="27" y1="18.7" x2="28" y2="18.7" stroke="#5D0100" stroke-width="0.6"/>
<line x1="33" y1="18.7" x2="34" y2="18.7" stroke="#5D0100" stroke-width="0.6"/>
<line x1="29" y1="18.7" x2="32" y2="18.7" stroke="#5D0100" stroke-width="0.6"/>
<path d="M60.1224 85C41.7128 108.071 79.5565 107.464 60.1224 136" stroke="#5D0100" stroke-width="0.894737"/>
<path d="M50.8418 85C55.1067 87.602 62.6523 94.9918 58.7155 103.735C54.7786 112.478 58.3874 128.888 60.6839 136" stroke="#5D0100" stroke-opacity="0.6" stroke-width="0.626316" stroke-dasharray="1.25 1.25"/>
<rect x="59" y="90" width="22" height="12" fill="#B8CCDD"/>
<path d="M61.2879 94.5981H60.833L62.1487 91.015H62.5966L63.9123 94.5981H63.4574L62.3866 91.5819H62.3586L61.2879 94.5981ZM61.4559 93.1985H63.2894V93.5834H61.4559V93.1985ZM64.4704 94.5981V91.015H64.8833V92.3377H64.9183C64.9486 92.291 64.9906 92.2315 65.0442 92.1592C65.0991 92.0857 65.1772 92.0204 65.2787 91.9633C65.3813 91.905 65.5201 91.8758 65.6951 91.8758C65.9214 91.8758 66.1208 91.9324 66.2934 92.0455C66.4661 92.1586 66.6008 92.319 66.6976 92.5266C66.7944 92.7343 66.8428 92.9792 66.8428 93.2615C66.8428 93.5461 66.7944 93.7928 66.6976 94.0015C66.6008 94.2092 66.4667 94.3701 66.2952 94.4844C66.1237 94.5976 65.926 94.6541 65.7021 94.6541C65.5295 94.6541 65.3912 94.6256 65.2874 94.5684C65.1836 94.5101 65.1037 94.4442 65.0477 94.3707C64.9918 94.2961 64.9486 94.2342 64.9183 94.1852H64.8693V94.5981H64.4704ZM64.8763 93.2545C64.8763 93.4574 64.906 93.6365 64.9655 93.7916C65.025 93.9456 65.1119 94.0663 65.2262 94.1538C65.3405 94.2401 65.4805 94.2832 65.6461 94.2832C65.8187 94.2832 65.9628 94.2377 66.0782 94.1468C66.1949 94.0546 66.2824 93.931 66.3407 93.7758C66.4002 93.6195 66.4299 93.4458 66.4299 93.2545C66.4299 93.0655 66.4008 92.8952 66.3424 92.7436C66.2853 92.5908 66.1984 92.4701 66.0817 92.3814C65.9663 92.2916 65.8211 92.2467 65.6461 92.2467C65.4781 92.2467 65.337 92.2893 65.2227 92.3744C65.1084 92.4584 65.0221 92.5762 64.9638 92.7278C64.9054 92.8783 64.8763 93.0538 64.8763 93.2545ZM68.5662 94.6541C68.3235 94.6541 68.1107 94.5964 67.9276 94.4809C67.7456 94.3655 67.6033 94.2039 67.5007 93.9963C67.3992 93.7887 67.3484 93.5461 67.3484 93.2685C67.3484 92.9885 67.3992 92.7442 67.5007 92.5354C67.6033 92.3266 67.7456 92.1645 67.9276 92.049C68.1107 91.9335 68.3235 91.8758 68.5662 91.8758C68.8088 91.8758 69.021 91.9335 69.203 92.049C69.3861 92.1645 69.5284 92.3266 69.6299 92.5354C69.7325 92.7442 69.7839 92.9885 69.7839 93.2685C69.7839 93.5461 69.7325 93.7887 69.6299 93.9963C69.5284 94.2039 69.3861 94.3655 69.203 94.4809C69.021 94.5964 68.8088 94.6541 68.5662 94.6541ZM68.5662 94.2832C68.7504 94.2832 68.9021 94.236 69.021 94.1415C69.14 94.047 69.2281 93.9228 69.2852 93.7688C69.3424 93.6149 69.371 93.4481 69.371 93.2685C69.371 93.0888 69.3424 92.9215 69.2852 92.7663C69.2281 92.6112 69.14 92.4858 69.021 92.3902C68.9021 92.2945 68.7504 92.2467 68.5662 92.2467C68.3819 92.2467 68.2302 92.2945 68.1113 92.3902C67.9923 92.4858 67.9042 92.6112 67.8471 92.7663C67.7899 92.9215 67.7613 93.0888 67.7613 93.2685C67.7613 93.4481 67.7899 93.6149 67.8471 93.7688C67.9042 93.9228 67.9923 94.047 68.1113 94.1415C68.2302 94.236 68.3819 94.2832 68.5662 94.2832ZM72.5154 91.9108L71.5216 94.5981H71.1017L70.108 91.9108H70.5559L71.2977 94.0523H71.3257L72.0675 91.9108H72.5154ZM74.0909 94.6541C73.832 94.6541 73.6086 94.597 73.4208 94.4827C73.2342 94.3672 73.0901 94.2062 72.9887 93.9998C72.8884 93.7922 72.8382 93.5507 72.8382 93.2755C72.8382 93.0002 72.8884 92.7576 72.9887 92.5476C73.0901 92.3365 73.2313 92.1721 73.4121 92.0543C73.594 91.9353 73.8063 91.8758 74.0489 91.8758C74.1889 91.8758 74.3271 91.8991 74.4636 91.9458C74.6 91.9924 74.7242 92.0682 74.8362 92.1732C74.9482 92.277 75.0374 92.4147 75.1039 92.5861C75.1704 92.7576 75.2036 92.9687 75.2036 93.2195V93.3944H73.1321V93.0375H74.7837C74.7837 92.8859 74.7534 92.7506 74.6928 92.6316C74.6333 92.5126 74.5481 92.4187 74.4373 92.3499C74.3277 92.2811 74.1982 92.2467 74.0489 92.2467C73.8844 92.2467 73.7421 92.2875 73.622 92.3692C73.503 92.4497 73.4115 92.5546 73.3473 92.6841C73.2832 92.8136 73.2511 92.9524 73.2511 93.1005V93.3384C73.2511 93.5414 73.2861 93.7134 73.3561 93.8546C73.4272 93.9945 73.5258 94.1013 73.6518 94.1747C73.7777 94.2471 73.9241 94.2832 74.0909 94.2832C74.1994 94.2832 74.2973 94.2681 74.3848 94.2377C74.4735 94.2062 74.5499 94.1596 74.614 94.0978C74.6782 94.0348 74.7277 93.9566 74.7627 93.8633L75.1616 93.9753C75.1197 94.1106 75.0491 94.2296 74.9499 94.3322C74.8508 94.4337 74.7283 94.513 74.5825 94.5702C74.4367 94.6261 74.2729 94.6541 74.0909 94.6541ZM61.8758 100.661C61.7055 100.661 61.5509 100.629 61.4121 100.565C61.2733 100.5 61.1631 100.406 61.0814 100.283C60.9998 100.16 60.959 100.01 60.959 99.8353C60.959 99.6814 60.9893 99.5566 61.0499 99.4609C61.1106 99.3641 61.1917 99.2883 61.2931 99.2335C61.3946 99.1787 61.5066 99.1378 61.6291 99.111C61.7527 99.083 61.8769 99.0608 62.0017 99.0445C62.165 99.0235 62.2974 99.0078 62.3989 98.9973C62.5015 98.9856 62.5762 98.9664 62.6228 98.9395C62.6706 98.9127 62.6946 98.8661 62.6946 98.7996V98.7856C62.6946 98.613 62.6473 98.4788 62.5528 98.3832C62.4595 98.2875 62.3178 98.2397 62.1277 98.2397C61.9306 98.2397 61.776 98.2829 61.6641 98.3692C61.5521 98.4555 61.4733 98.5476 61.4279 98.6456L61.036 98.5056C61.1059 98.3423 61.1992 98.2152 61.3159 98.1242C61.4337 98.0321 61.562 97.9679 61.7008 97.9318C61.8408 97.8945 61.9784 97.8758 62.1137 97.8758C62.2 97.8758 62.2992 97.8863 62.4111 97.9073C62.5243 97.9271 62.6333 97.9685 62.7383 98.0315C62.8444 98.0945 62.9325 98.1896 63.0025 98.3167C63.0725 98.4438 63.1075 98.6141 63.1075 98.8276V100.598H62.6946V100.234H62.6736C62.6456 100.293 62.5989 100.355 62.5336 100.421C62.4683 100.488 62.3814 100.544 62.2729 100.591C62.1644 100.638 62.032 100.661 61.8758 100.661ZM61.9387 100.29C62.102 100.29 62.2397 100.258 62.3516 100.194C62.4648 100.13 62.5499 100.047 62.6071 99.9456C62.6654 99.8441 62.6946 99.7374 62.6946 99.6254V99.2475C62.6771 99.2685 62.6386 99.2877 62.5791 99.3052C62.5208 99.3215 62.4531 99.3361 62.3761 99.3489C62.3003 99.3606 62.2263 99.3711 62.1539 99.3804C62.0828 99.3886 62.025 99.3956 61.9807 99.4014C61.8734 99.4154 61.7731 99.4382 61.6798 99.4697C61.5877 99.5 61.513 99.5461 61.4559 99.6079C61.3999 99.6685 61.3719 99.7513 61.3719 99.8563C61.3719 99.9998 61.4249 100.108 61.5311 100.182C61.6384 100.254 61.7743 100.29 61.9387 100.29ZM65.9623 97.9108L64.9686 100.598H64.5487L63.5549 97.9108H64.0028L64.7446 100.052H64.7726L65.5144 97.9108H65.9623ZM67.5378 100.654C67.2789 100.654 67.0555 100.597 66.8677 100.483C66.6811 100.367 66.5371 100.206 66.4356 99.9998C66.3353 99.7922 66.2851 99.5507 66.2851 99.2755C66.2851 99.0002 66.3353 98.7576 66.4356 98.5476C66.5371 98.3365 66.6782 98.1721 66.859 98.0543C67.041 97.9353 67.2532 97.8758 67.4958 97.8758C67.6358 97.8758 67.774 97.8991 67.9105 97.9458C68.047 97.9924 68.1712 98.0682 68.2832 98.1732C68.3951 98.277 68.4844 98.4147 68.5508 98.5861C68.6173 98.7576 68.6506 98.9687 68.6506 99.2195V99.3944H66.5791V99.0375H68.2307C68.2307 98.8859 68.2003 98.7506 68.1397 98.6316C68.0802 98.5126 67.9951 98.4187 67.8843 98.3499C67.7746 98.2811 67.6451 98.2467 67.4958 98.2467C67.3314 98.2467 67.1891 98.2875 67.0689 98.3692C66.95 98.4497 66.8584 98.5546 66.7943 98.6841C66.7301 98.8136 66.698 98.9524 66.698 99.1005V99.3384C66.698 99.5414 66.733 99.7134 66.803 99.8546C66.8742 99.9945 66.9727 100.101 67.0987 100.175C67.2247 100.247 67.371 100.283 67.5378 100.283C67.6463 100.283 67.7443 100.268 67.8318 100.238C67.9204 100.206 67.9968 100.16 68.061 100.098C68.1251 100.035 68.1747 99.9566 68.2097 99.8633L68.6086 99.9753C68.5666 100.111 68.496 100.23 68.3969 100.332C68.2977 100.434 68.1753 100.513 68.0295 100.57C67.8837 100.626 67.7198 100.654 67.5378 100.654ZM69.2787 100.598V97.9108H69.6776V98.3167H69.7056C69.7546 98.1837 69.8432 98.0758 69.9715 97.993C70.0998 97.9102 70.2444 97.8688 70.4054 97.8688C70.4357 97.8688 70.4736 97.8694 70.5191 97.8705C70.5646 97.8717 70.599 97.8735 70.6224 97.8758V98.2957C70.6084 98.2922 70.5763 98.2869 70.5261 98.2799C70.4771 98.2718 70.4252 98.2677 70.3704 98.2677C70.2398 98.2677 70.1231 98.2951 70.0205 98.3499C69.919 98.4036 69.8385 98.4782 69.7791 98.5739C69.7207 98.6684 69.6916 98.7762 69.6916 98.8976V100.598H69.2787ZM71.9026 100.661C71.7323 100.661 71.5778 100.629 71.439 100.565C71.3002 100.5 71.1899 100.406 71.1083 100.283C71.0266 100.16 70.9858 100.01 70.9858 99.8353C70.9858 99.6814 71.0162 99.5566 71.0768 99.4609C71.1375 99.3641 71.2185 99.2883 71.32 99.2335C71.4215 99.1787 71.5334 99.1378 71.6559 99.111C71.7796 99.083 71.9038 99.0608 72.0286 99.0445C72.1919 99.0235 72.3243 99.0078 72.4257 98.9973C72.5284 98.9856 72.603 98.9664 72.6497 98.9395C72.6975 98.9127 72.7214 98.8661 72.7214 98.7996V98.7856C72.7214 98.613 72.6742 98.4788 72.5797 98.3832C72.4864 98.2875 72.3447 98.2397 72.1545 98.2397C71.9574 98.2397 71.8029 98.2829 71.6909 98.3692C71.5789 98.4555 71.5002 98.5476 71.4547 98.6456L71.0628 98.5056C71.1328 98.3423 71.2261 98.2152 71.3427 98.1242C71.4605 98.0321 71.5888 97.9679 71.7276 97.9318C71.8676 97.8945 72.0052 97.8758 72.1405 97.8758C72.2269 97.8758 72.326 97.8863 72.438 97.9073C72.5511 97.9271 72.6602 97.9685 72.7652 98.0315C72.8713 98.0945 72.9594 98.1896 73.0293 98.3167C73.0993 98.4438 73.1343 98.6141 73.1343 98.8276V100.598H72.7214V100.234H72.7004C72.6724 100.293 72.6258 100.355 72.5604 100.421C72.4951 100.488 72.4082 100.544 72.2998 100.591C72.1913 100.638 72.0589 100.661 71.9026 100.661ZM71.9656 100.29C72.1289 100.29 72.2665 100.258 72.3785 100.194C72.4916 100.13 72.5768 100.047 72.6339 99.9456C72.6923 99.8441 72.7214 99.7374 72.7214 99.6254V99.2475C72.7039 99.2685 72.6654 99.2877 72.6059 99.3052C72.5476 99.3215 72.48 99.3361 72.403 99.3489C72.3272 99.3606 72.2531 99.3711 72.1808 99.3804C72.1096 99.3886 72.0519 99.3956 72.0076 99.4014C71.9003 99.4154 71.8 99.4382 71.7067 99.4697C71.6145 99.5 71.5399 99.5461 71.4827 99.6079C71.4267 99.6685 71.3987 99.7513 71.3987 99.8563C71.3987 99.9998 71.4518 100.108 71.5579 100.182C71.6652 100.254 71.8011 100.29 71.9656 100.29ZM74.9727 101.662C74.7732 101.662 74.6018 101.636 74.4583 101.585C74.3148 101.535 74.1953 101.468 74.0996 101.385C74.0052 101.304 73.9299 101.216 73.8739 101.123L74.2029 100.892C74.2402 100.941 74.2874 100.997 74.3446 101.06C74.4017 101.124 74.4799 101.18 74.579 101.226C74.6793 101.274 74.8106 101.298 74.9727 101.298C75.1896 101.298 75.3687 101.245 75.5098 101.141C75.6509 101.036 75.7215 100.871 75.7215 100.647V100.101H75.6865C75.6562 100.15 75.613 100.211 75.557 100.283C75.5022 100.354 75.4229 100.418 75.3191 100.474C75.2165 100.529 75.0777 100.556 74.9027 100.556C74.6858 100.556 74.491 100.505 74.3183 100.402C74.1469 100.3 74.011 100.15 73.9107 99.9543C73.8115 99.7583 73.762 99.5204 73.762 99.2405C73.762 98.9652 73.8104 98.7255 73.9072 98.5214C74.004 98.3161 74.1387 98.1575 74.3113 98.0455C74.484 97.9324 74.6834 97.8758 74.9097 97.8758C75.0847 97.8758 75.2235 97.905 75.3261 97.9633C75.4299 98.0204 75.5092 98.0857 75.564 98.1592C75.62 98.2315 75.6632 98.291 75.6935 98.3377H75.7355V97.9108H76.1344V100.675C76.1344 100.906 76.0819 101.094 75.9769 101.238C75.8731 101.384 75.7332 101.491 75.557 101.559C75.3821 101.627 75.1873 101.662 74.9727 101.662ZM74.9587 100.185C75.1243 100.185 75.2643 100.147 75.3786 100.072C75.4929 99.9957 75.5798 99.8866 75.6393 99.7443C75.6988 99.602 75.7285 99.4318 75.7285 99.2335C75.7285 99.0399 75.6993 98.869 75.641 98.7208C75.5827 98.5727 75.4964 98.4567 75.3821 98.3727C75.2678 98.2887 75.1266 98.2467 74.9587 98.2467C74.7837 98.2467 74.6379 98.291 74.5213 98.3797C74.4058 98.4683 74.3189 98.5873 74.2606 98.7366C74.2035 98.8859 74.1749 99.0515 74.1749 99.2335C74.1749 99.4201 74.204 99.5851 74.2624 99.7286C74.3218 99.8709 74.4093 99.9829 74.5248 100.065C74.6414 100.145 74.7861 100.185 74.9587 100.185ZM78.017 100.654C77.758 100.654 77.5347 100.597 77.3469 100.483C77.1602 100.367 77.0162 100.206 76.9147 99.9998C76.8144 99.7922 76.7643 99.5507 76.7643 99.2755C76.7643 99.0002 76.8144 98.7576 76.9147 98.5476C77.0162 98.3365 77.1573 98.1721 77.3381 98.0543C77.5201 97.9353 77.7324 97.8758 77.975 97.8758C78.1149 97.8758 78.2532 97.8991 78.3896 97.9458C78.5261 97.9924 78.6503 98.0682 78.7623 98.1732C78.8743 98.277 78.9635 98.4147 79.03 98.5861C79.0965 98.7576 79.1297 98.9687 79.1297 99.2195V99.3944H77.0582V99.0375H78.7098C78.7098 98.8859 78.6795 98.7506 78.6188 98.6316C78.5593 98.5126 78.4742 98.4187 78.3634 98.3499C78.2537 98.2811 78.1243 98.2467 77.975 98.2467C77.8105 98.2467 77.6682 98.2875 77.5481 98.3692C77.4291 98.4497 77.3375 98.5546 77.2734 98.6841C77.2092 98.8136 77.1772 98.9524 77.1772 99.1005V99.3384C77.1772 99.5414 77.2122 99.7134 77.2821 99.8546C77.3533 99.9945 77.4518 100.101 77.5778 100.175C77.7038 100.247 77.8502 100.283 78.017 100.283C78.1254 100.283 78.2234 100.268 78.3109 100.238C78.3995 100.206 78.4759 100.16 78.5401 100.098C78.6042 100.035 78.6538 99.9566 78.6888 99.8633L79.0877 99.9753C79.0457 100.111 78.9751 100.23 78.876 100.332C78.7769 100.434 78.6544 100.513 78.5086 100.57C78.3628 100.626 78.1989 100.654 78.017 100.654Z" fill="#5D0100"/>
<rect x="43.6846" y="111.842" width="17" height="16.1053" fill="#B8CCDD"/>
<path d="M47.9843 118.009V114.426H49.237C49.4867 114.426 49.6925 114.469 49.8546 114.556C50.0168 114.641 50.1375 114.756 50.2168 114.9C50.2961 115.044 50.3358 115.203 50.3358 115.378C50.3358 115.532 50.3084 115.659 50.2536 115.759C50.1999 115.86 50.1287 115.939 50.0401 115.997C49.9526 116.056 49.8576 116.099 49.7549 116.127V116.162C49.8646 116.169 49.9748 116.207 50.0856 116.277C50.1964 116.347 50.2891 116.447 50.3638 116.578C50.4384 116.709 50.4757 116.869 50.4757 117.058C50.4757 117.237 50.4349 117.399 50.3533 117.542C50.2716 117.686 50.1427 117.799 49.9666 117.883C49.7905 117.967 49.5613 118.009 49.279 118.009H47.9843ZM48.4182 117.624H49.279C49.5625 117.624 49.7637 117.57 49.8826 117.46C50.0028 117.349 50.0628 117.215 50.0628 117.058C50.0628 116.936 50.0319 116.824 49.9701 116.722C49.9083 116.618 49.8202 116.535 49.7059 116.473C49.5916 116.41 49.4563 116.379 49.3 116.379H48.4182V117.624ZM48.4182 116.001H49.223C49.3537 116.001 49.4715 115.975 49.5765 115.924C49.6826 115.872 49.7666 115.8 49.8284 115.707C49.8914 115.614 49.9229 115.504 49.9229 115.378C49.9229 115.22 49.8681 115.087 49.7584 114.977C49.6488 114.866 49.475 114.811 49.237 114.811H48.4182V116.001ZM52.2594 118.065C52.0005 118.065 51.7771 118.008 51.5894 117.894C51.4027 117.778 51.2587 117.617 51.1572 117.411C51.0569 117.203 51.0067 116.962 51.0067 116.687C51.0067 116.411 51.0569 116.169 51.1572 115.959C51.2587 115.748 51.3998 115.583 51.5806 115.465C51.7626 115.346 51.9748 115.287 52.2175 115.287C52.3574 115.287 52.4956 115.31 52.6321 115.357C52.7686 115.404 52.8928 115.479 53.0048 115.584C53.1167 115.688 53.206 115.826 53.2725 115.997C53.3389 116.169 53.3722 116.38 53.3722 116.631V116.806H51.3007V116.449H52.9523C52.9523 116.297 52.922 116.162 52.8613 116.043C52.8018 115.924 52.7167 115.83 52.6059 115.761C52.4962 115.692 52.3668 115.658 52.2175 115.658C52.053 115.658 51.9107 115.699 51.7906 115.78C51.6716 115.861 51.58 115.966 51.5159 116.095C51.4517 116.225 51.4196 116.364 51.4196 116.512V116.75C51.4196 116.953 51.4546 117.125 51.5246 117.266C51.5958 117.406 51.6943 117.512 51.8203 117.586C51.9463 117.658 52.0927 117.694 52.2594 117.694C52.3679 117.694 52.4659 117.679 52.5534 117.649C52.642 117.617 52.7184 117.571 52.7826 117.509C52.8467 117.446 52.8963 117.368 52.9313 117.274L53.3302 117.386C53.2882 117.522 53.2176 117.641 53.1185 117.743C53.0193 117.845 52.8969 117.924 52.7511 117.981C52.6053 118.037 52.4414 118.065 52.2594 118.065ZM54.4132 114.426V118.009H54.0003V114.426H54.4132ZM56.2612 118.065C56.0186 118.065 55.8057 118.008 55.6226 117.892C55.4406 117.777 55.2983 117.615 55.1957 117.407C55.0942 117.2 55.0435 116.957 55.0435 116.68C55.0435 116.4 55.0942 116.155 55.1957 115.947C55.2983 115.738 55.4406 115.576 55.6226 115.46C55.8057 115.345 56.0186 115.287 56.2612 115.287C56.5038 115.287 56.7161 115.345 56.898 115.46C57.0812 115.576 57.2234 115.738 57.3249 115.947C57.4276 116.155 57.4789 116.4 57.4789 116.68C57.4789 116.957 57.4276 117.2 57.3249 117.407C57.2234 117.615 57.0812 117.777 56.898 117.892C56.7161 118.008 56.5038 118.065 56.2612 118.065ZM56.2612 117.694C56.4455 117.694 56.5971 117.647 56.7161 117.553C56.835 117.458 56.9231 117.334 56.9803 117.18C57.0374 117.026 57.066 116.859 57.066 116.68C57.066 116.5 57.0374 116.333 56.9803 116.177C56.9231 116.022 56.835 115.897 56.7161 115.801C56.5971 115.706 56.4455 115.658 56.2612 115.658C56.0769 115.658 55.9253 115.706 55.8063 115.801C55.6873 115.897 55.5993 116.022 55.5421 116.177C55.4849 116.333 55.4564 116.5 55.4564 116.68C55.4564 116.859 55.4849 117.026 55.5421 117.18C55.5993 117.334 55.6873 117.458 55.8063 117.553C55.9253 117.647 56.0769 117.694 56.2612 117.694ZM58.6266 118.009L57.8078 115.322H58.2417L58.8226 117.379H58.8506L59.4244 115.322H59.8653L60.4322 117.372H60.4602L61.041 115.322H61.4749L60.6561 118.009H60.2502L59.6624 115.945H59.6204L59.0325 118.009H58.6266ZM44.1388 124.072C43.9685 124.072 43.8139 124.04 43.6751 123.976C43.5363 123.911 43.4261 123.817 43.3445 123.694C43.2628 123.571 43.222 123.421 43.222 123.246C43.222 123.092 43.2523 122.968 43.313 122.872C43.3736 122.775 43.4547 122.699 43.5562 122.645C43.6576 122.59 43.7696 122.549 43.8921 122.522C44.0157 122.494 44.1399 122.472 44.2647 122.456C44.428 122.435 44.5604 122.419 44.6619 122.408C44.7645 122.397 44.8392 122.378 44.8858 122.351C44.9337 122.324 44.9576 122.277 44.9576 122.211V122.197C44.9576 122.024 44.9103 121.89 44.8159 121.794C44.7225 121.699 44.5808 121.651 44.3907 121.651C44.1936 121.651 44.039 121.694 43.9271 121.78C43.8151 121.867 43.7364 121.959 43.6909 122.057L43.299 121.917C43.3689 121.753 43.4623 121.626 43.5789 121.535C43.6967 121.443 43.825 121.379 43.9638 121.343C44.1038 121.306 44.2414 121.287 44.3767 121.287C44.463 121.287 44.5622 121.297 44.6741 121.318C44.7873 121.338 44.8963 121.38 45.0013 121.443C45.1074 121.506 45.1955 121.601 45.2655 121.728C45.3355 121.855 45.3705 122.025 45.3705 122.239V124.009H44.9576V123.645H44.9366C44.9086 123.704 44.8619 123.766 44.7966 123.833C44.7313 123.899 44.6444 123.956 44.5359 124.002C44.4274 124.049 44.2951 124.072 44.1388 124.072ZM44.2017 123.701C44.365 123.701 44.5027 123.669 44.6146 123.605C44.7278 123.541 44.8129 123.458 44.8701 123.357C44.9284 123.255 44.9576 123.148 44.9576 123.037V122.659C44.9401 122.68 44.9016 122.699 44.8421 122.716C44.7838 122.733 44.7161 122.747 44.6391 122.76C44.5633 122.772 44.4893 122.782 44.4169 122.792C44.3458 122.8 44.2881 122.807 44.2437 122.813C44.1364 122.827 44.0361 122.849 43.9428 122.881C43.8507 122.911 43.776 122.957 43.7189 123.019C43.6629 123.08 43.6349 123.162 43.6349 123.267C43.6349 123.411 43.688 123.519 43.7941 123.593C43.9014 123.665 44.0373 123.701 44.2017 123.701ZM48.2253 121.322L47.2316 124.009H46.8117L45.8179 121.322H46.2658L47.0076 123.463H47.0356L47.7775 121.322H48.2253ZM49.8008 124.065C49.5419 124.065 49.3185 124.008 49.1308 123.894C48.9441 123.778 48.8001 123.617 48.6986 123.411C48.5983 123.203 48.5481 122.962 48.5481 122.687C48.5481 122.411 48.5983 122.169 48.6986 121.959C48.8001 121.748 48.9412 121.583 49.122 121.465C49.304 121.346 49.5162 121.287 49.7589 121.287C49.8988 121.287 50.037 121.31 50.1735 121.357C50.31 121.404 50.4342 121.479 50.5462 121.584C50.6581 121.688 50.7474 121.826 50.8139 121.997C50.8803 122.169 50.9136 122.38 50.9136 122.631V122.806H48.8421V122.449H50.4937C50.4937 122.297 50.4634 122.162 50.4027 122.043C50.3432 121.924 50.2581 121.83 50.1473 121.761C50.0376 121.692 49.9082 121.658 49.7589 121.658C49.5944 121.658 49.4521 121.699 49.332 121.78C49.213 121.861 49.1214 121.966 49.0573 122.095C48.9931 122.225 48.961 122.364 48.961 122.512V122.75C48.961 122.953 48.996 123.125 49.066 123.266C49.1372 123.406 49.2357 123.512 49.3617 123.586C49.4877 123.658 49.6341 123.694 49.8008 123.694C49.9093 123.694 50.0073 123.679 50.0948 123.649C50.1834 123.617 50.2598 123.571 50.324 123.509C50.3881 123.446 50.4377 123.368 50.4727 123.274L50.8716 123.386C50.8296 123.522 50.759 123.641 50.6599 123.743C50.5607 123.845 50.4383 123.924 50.2925 123.981C50.1467 124.037 49.9828 124.065 49.8008 124.065ZM51.5417 124.009V121.322H51.9406V121.728H51.9686C52.0176 121.595 52.1062 121.487 52.2345 121.404C52.3628 121.321 52.5075 121.28 52.6684 121.28C52.6987 121.28 52.7366 121.281 52.7821 121.282C52.8276 121.283 52.862 121.285 52.8854 121.287V121.707C52.8714 121.703 52.8393 121.698 52.7891 121.691C52.7401 121.683 52.6882 121.679 52.6334 121.679C52.5028 121.679 52.3861 121.706 52.2835 121.761C52.182 121.815 52.1015 121.889 52.0421 121.985C51.9837 122.079 51.9546 122.187 51.9546 122.309V124.009H51.5417ZM54.1656 124.072C53.9953 124.072 53.8408 124.04 53.702 123.976C53.5632 123.911 53.453 123.817 53.3713 123.694C53.2897 123.571 53.2488 123.421 53.2488 123.246C53.2488 123.092 53.2792 122.968 53.3398 122.872C53.4005 122.775 53.4815 122.699 53.583 122.645C53.6845 122.59 53.7965 122.549 53.9189 122.522C54.0426 122.494 54.1668 122.472 54.2916 122.456C54.4549 122.435 54.5873 122.419 54.6887 122.408C54.7914 122.397 54.866 122.378 54.9127 122.351C54.9605 122.324 54.9844 122.277 54.9844 122.211V122.197C54.9844 122.024 54.9372 121.89 54.8427 121.794C54.7494 121.699 54.6077 121.651 54.4176 121.651C54.2204 121.651 54.0659 121.694 53.9539 121.78C53.8419 121.867 53.7632 121.959 53.7177 122.057L53.3258 121.917C53.3958 121.753 53.4891 121.626 53.6058 121.535C53.7236 121.443 53.8519 121.379 53.9907 121.343C54.1306 121.306 54.2683 121.287 54.4036 121.287C54.4899 121.287 54.589 121.297 54.701 121.318C54.8141 121.338 54.9232 121.38 55.0282 121.443C55.1343 121.506 55.2224 121.601 55.2923 121.728C55.3623 121.855 55.3973 122.025 55.3973 122.239V124.009H54.9844V123.645H54.9634C54.9354 123.704 54.8888 123.766 54.8235 123.833C54.7581 123.899 54.6712 123.956 54.5628 124.002C54.4543 124.049 54.3219 124.072 54.1656 124.072ZM54.2286 123.701C54.3919 123.701 54.5295 123.669 54.6415 123.605C54.7546 123.541 54.8398 123.458 54.8969 123.357C54.9553 123.255 54.9844 123.148 54.9844 123.037V122.659C54.9669 122.68 54.9284 122.699 54.8689 122.716C54.8106 122.733 54.743 122.747 54.666 122.76C54.5902 122.772 54.5161 122.782 54.4438 122.792C54.3727 122.8 54.3149 122.807 54.2706 122.813C54.1633 122.827 54.063 122.849 53.9697 122.881C53.8775 122.911 53.8029 122.957 53.7457 123.019C53.6897 123.08 53.6617 123.162 53.6617 123.267C53.6617 123.411 53.7148 123.519 53.8209 123.593C53.9283 123.665 54.0641 123.701 54.2286 123.701ZM57.2357 125.073C57.0362 125.073 56.8648 125.047 56.7213 124.996C56.5779 124.946 56.4583 124.879 56.3627 124.797C56.2682 124.715 56.1929 124.627 56.137 124.534L56.4659 124.303C56.5032 124.352 56.5504 124.408 56.6076 124.471C56.6647 124.535 56.7429 124.591 56.842 124.637C56.9423 124.685 57.0736 124.709 57.2357 124.709C57.4526 124.709 57.6317 124.657 57.7728 124.552C57.914 124.447 57.9845 124.282 57.9845 124.058V123.512H57.9495C57.9192 123.561 57.876 123.622 57.8201 123.694C57.7652 123.766 57.6859 123.829 57.5821 123.885C57.4795 123.94 57.3407 123.967 57.1657 123.967C56.9488 123.967 56.754 123.916 56.5814 123.813C56.4099 123.711 56.274 123.561 56.1737 123.365C56.0746 123.169 56.025 122.932 56.025 122.652C56.025 122.376 56.0734 122.137 56.1702 121.933C56.267 121.727 56.4017 121.569 56.5744 121.457C56.747 121.343 56.9464 121.287 57.1727 121.287C57.3477 121.287 57.4865 121.316 57.5891 121.374C57.6929 121.432 57.7722 121.497 57.8271 121.57C57.883 121.643 57.9262 121.702 57.9565 121.749H57.9985V121.322H58.3974V124.086C58.3974 124.317 58.3449 124.505 58.24 124.65C58.1361 124.795 57.9962 124.902 57.8201 124.97C57.6451 125.039 57.4503 125.073 57.2357 125.073ZM57.2217 123.596C57.3873 123.596 57.5273 123.558 57.6416 123.483C57.7559 123.407 57.8428 123.298 57.9023 123.155C57.9618 123.013 57.9915 122.843 57.9915 122.645C57.9915 122.451 57.9624 122.28 57.904 122.132C57.8457 121.984 57.7594 121.868 57.6451 121.784C57.5308 121.7 57.3897 121.658 57.2217 121.658C57.0467 121.658 56.9009 121.702 56.7843 121.791C56.6688 121.879 56.5819 121.998 56.5236 122.148C56.4665 122.297 56.4379 122.463 56.4379 122.645C56.4379 122.831 56.467 122.996 56.5254 123.14C56.5849 123.282 56.6723 123.394 56.7878 123.476C56.9044 123.556 57.0491 123.596 57.2217 123.596ZM60.28 124.065C60.021 124.065 59.7977 124.008 59.6099 123.894C59.4233 123.778 59.2792 123.617 59.1777 123.411C59.0774 123.203 59.0273 122.962 59.0273 122.687C59.0273 122.411 59.0774 122.169 59.1777 121.959C59.2792 121.748 59.4203 121.583 59.6011 121.465C59.7831 121.346 59.9954 121.287 60.238 121.287C60.3779 121.287 60.5162 121.31 60.6526 121.357C60.7891 121.404 60.9133 121.479 61.0253 121.584C61.1373 121.688 61.2265 121.826 61.293 121.997C61.3595 122.169 61.3927 122.38 61.3927 122.631V122.806H59.3212V122.449H60.9728C60.9728 122.297 60.9425 122.162 60.8818 122.043C60.8223 121.924 60.7372 121.83 60.6264 121.761C60.5167 121.692 60.3873 121.658 60.238 121.658C60.0735 121.658 59.9312 121.699 59.8111 121.78C59.6921 121.861 59.6005 121.966 59.5364 122.095C59.4722 122.225 59.4402 122.364 59.4402 122.512V122.75C59.4402 122.953 59.4752 123.125 59.5451 123.266C59.6163 123.406 59.7149 123.512 59.8408 123.586C59.9668 123.658 60.1132 123.694 60.28 123.694C60.3884 123.694 60.4864 123.679 60.5739 123.649C60.6625 123.617 60.7389 123.571 60.8031 123.509C60.8672 123.446 60.9168 123.368 60.9518 123.274L61.3507 123.386C61.3087 123.522 61.2382 123.641 61.139 123.743C61.0399 123.845 60.9174 123.924 60.7716 123.981C60.6258 124.037 60.4619 124.065 60.28 124.065Z" fill="#5D0100"/>
</svg>
